<svg width="19" height="19" viewBox="0 0 19 19" fill="none" xmlns="http://www.w3.org/2000/svg">
<path d="M10.0001 18.58H9.00005C8.92852 18.5869 8.85633 18.5789 8.78803 18.5565C8.71974 18.5342 8.65683 18.4979 8.60327 18.4499C8.54971 18.402 8.50666 18.3435 8.47685 18.2781C8.44704 18.2127 8.4311 18.1419 8.43006 18.07C8.43006 17.81 8.37005 17.55 8.35005 17.29C8.33005 17.03 8.35005 17.11 8.17005 17.08C7.37704 16.8911 6.62035 16.5736 5.93006 16.14C5.90202 16.1125 5.86432 16.0971 5.82506 16.0971C5.78579 16.0971 5.7481 16.1125 5.72006 16.14L5.08006 16.66C5.03124 16.717 4.97066 16.7628 4.90247 16.7942C4.83429 16.8255 4.76012 16.8418 4.68506 16.8418C4.61 16.8418 4.53582 16.8255 4.46764 16.7942C4.39945 16.7628 4.33887 16.717 4.29006 16.66L2.92005 15.28C2.86304 15.2312 2.81727 15.1706 2.78588 15.1024C2.7545 15.0342 2.73825 14.9601 2.73825 14.885C2.73825 14.8099 2.7545 14.7358 2.78588 14.6676C2.81727 14.5994 2.86304 14.5388 2.92005 14.49L3.43005 13.85C3.45754 13.822 3.47293 13.7843 3.47293 13.745C3.47293 13.7057 3.45754 13.668 3.43005 13.64C2.99277 12.9444 2.67505 12.1805 2.49006 11.38C2.48878 11.359 2.48337 11.3384 2.47413 11.3195C2.46489 11.3006 2.452 11.2836 2.43621 11.2697C2.42041 11.2557 2.40202 11.2451 2.38209 11.2382C2.36216 11.2314 2.34107 11.2287 2.32005 11.23L1.54006 11.15C1.46201 11.1521 1.38444 11.1373 1.31268 11.1065C1.24093 11.0757 1.1767 11.0298 1.12442 10.9718C1.07214 10.9138 1.03306 10.8452 1.00986 10.7706C0.986662 10.6961 0.979907 10.6174 0.990056 10.54V8.61999C0.981464 8.54335 0.989385 8.46577 1.01329 8.39245C1.03719 8.31913 1.07652 8.25179 1.12863 8.19494C1.18074 8.1381 1.24442 8.09307 1.31539 8.06289C1.38635 8.03272 1.46296 8.01808 1.54006 8.01998L2.32005 7.94C2.43005 7.94 2.47005 7.87998 2.50005 7.76998C2.67735 6.97489 2.99208 6.21686 3.43005 5.52999C3.44548 5.51507 3.45774 5.4972 3.46612 5.47744C3.4745 5.45769 3.47881 5.43646 3.47881 5.415C3.47881 5.39355 3.4745 5.37229 3.46612 5.35253C3.45774 5.33278 3.44548 5.3149 3.43005 5.29998C3.25005 5.08998 3.08005 4.86999 2.91005 4.64999C2.85824 4.60223 2.81688 4.54424 2.7886 4.4797C2.76031 4.41516 2.74571 4.34546 2.74571 4.27499C2.74571 4.20452 2.76031 4.13482 2.7886 4.07028C2.81688 4.00573 2.85824 3.94775 2.91005 3.89999L4.32005 2.48999C4.36421 2.43639 4.41885 2.39238 4.48062 2.36065C4.54239 2.32892 4.60999 2.31016 4.67928 2.30548C4.74856 2.3008 4.81807 2.3103 4.88355 2.33343C4.94903 2.35656 5.00909 2.39283 5.06006 2.44L5.72006 2.97C5.75192 3.00175 5.79507 3.01959 5.84005 3.01959C5.88504 3.01959 5.92819 3.00175 5.96005 2.97C6.6428 2.53797 7.39323 2.2236 8.18006 2.04C8.23133 2.03493 8.27867 2.01025 8.31221 1.97113C8.34574 1.932 8.36288 1.88143 8.36006 1.82998C8.36006 1.56998 8.41005 1.30998 8.44005 1.04998C8.43956 0.976341 8.45472 0.903431 8.48452 0.836086C8.51432 0.76874 8.55809 0.708489 8.61292 0.659328C8.66775 0.610167 8.7324 0.573229 8.80259 0.55093C8.87278 0.528631 8.9469 0.521495 9.02005 0.529994H11.0201C11.0937 0.523011 11.1681 0.531529 11.2383 0.555019C11.3085 0.578509 11.3729 0.616448 11.4276 0.666378C11.4822 0.716307 11.5258 0.777112 11.5555 0.844905C11.5852 0.912699 11.6004 0.985978 11.6001 1.05999L11.6901 1.85C11.6901 1.95 11.6901 2.00999 11.8301 2.02999C12.6368 2.22022 13.4069 2.54113 14.1101 2.98001C14.1381 3.00749 14.1758 3.02288 14.2151 3.02288C14.2543 3.02288 14.292 3.00749 14.3201 2.98001L14.9401 2.48001C14.9888 2.41949 15.0505 2.37064 15.1206 2.33709C15.1906 2.30355 15.2674 2.28616 15.3451 2.28616C15.4228 2.28616 15.4995 2.30355 15.5696 2.33709C15.6396 2.37064 15.7013 2.41949 15.7501 2.48001L17.0001 3.83999C17.0573 3.88974 17.1032 3.95119 17.1346 4.0202C17.1661 4.0892 17.1824 4.16415 17.1824 4.23999C17.1824 4.31582 17.1661 4.39077 17.1346 4.45977C17.1032 4.52878 17.0573 4.59023 17.0001 4.63998L16.5001 5.26998C16.4852 5.28312 16.4732 5.29928 16.4651 5.31738C16.4569 5.33548 16.4527 5.35513 16.4527 5.375C16.4527 5.39486 16.4569 5.41448 16.4651 5.43258C16.4732 5.45069 16.4852 5.46687 16.5001 5.48001C16.9392 6.18182 17.257 6.9526 17.4401 7.76001C17.4401 7.87001 17.5201 7.88999 17.6201 7.89999L18.4001 7.98001C18.4768 7.97788 18.5531 7.99244 18.6236 8.0227C18.6942 8.05296 18.7573 8.09818 18.8087 8.15524C18.86 8.2123 18.8984 8.27984 18.9211 8.35318C18.9437 8.42651 18.9502 8.50389 18.9401 8.57998V10.52C18.9486 10.5931 18.9414 10.6673 18.9191 10.7375C18.8968 10.8076 18.8599 10.8723 18.8107 10.9271C18.7615 10.982 18.7013 11.0257 18.634 11.0555C18.5666 11.0853 18.4937 11.1005 18.4201 11.1C18.1601 11.1 17.8901 11.16 17.6301 11.19C17.5201 11.19 17.4601 11.19 17.4401 11.35C17.2531 12.1499 16.9355 12.9135 16.5001 13.61C16.4726 13.638 16.4572 13.6757 16.4572 13.715C16.4572 13.7543 16.4726 13.792 16.5001 13.82C16.6801 14.03 16.8601 14.25 17.0301 14.47C17.0837 14.5187 17.1266 14.5782 17.156 14.6445C17.1854 14.7108 17.2005 14.7825 17.2005 14.855C17.2005 14.9275 17.1854 14.9992 17.156 15.0655C17.1266 15.1318 17.0837 15.1912 17.0301 15.24L15.6401 16.63C15.5949 16.6854 15.5389 16.7309 15.4754 16.7637C15.4118 16.7965 15.3423 16.8159 15.2709 16.8206C15.1996 16.8252 15.1281 16.8152 15.0609 16.791C14.9936 16.7668 14.9321 16.729 14.8801 16.68L14.2301 16.15C14.1987 16.1212 14.1576 16.1052 14.1151 16.1052C14.0725 16.1052 14.0314 16.1212 14.0001 16.15C13.304 16.5841 12.5401 16.8985 11.7401 17.08C11.719 17.0825 11.6986 17.0891 11.6801 17.0995C11.6616 17.1099 11.6454 17.1239 11.6324 17.1407C11.6193 17.1574 11.6098 17.1766 11.6042 17.1971C11.5987 17.2176 11.5973 17.239 11.6001 17.26C11.6001 17.51 11.5401 17.76 11.5201 18.02C11.5239 18.0998 11.51 18.1795 11.4793 18.2533C11.4486 18.3271 11.402 18.3932 11.3426 18.4468C11.2833 18.5003 11.2129 18.5401 11.1363 18.5631C11.0598 18.5862 10.9791 18.5919 10.9001 18.58H10.0001ZM15.2501 16.29C15.3101 16.29 15.3301 16.29 15.3601 16.22L16.6501 14.93C16.7301 14.85 16.7201 14.81 16.6501 14.73C16.4401 14.48 16.2401 14.22 16.0301 13.96C16.0013 13.932 15.9785 13.8986 15.9629 13.8617C15.9473 13.8248 15.9393 13.7851 15.9393 13.745C15.9393 13.7049 15.9473 13.6652 15.9629 13.6283C15.9785 13.5914 16.0013 13.558 16.0301 13.53C16.5153 12.7658 16.8544 11.9181 17.0301 11.03C17.0901 10.78 17.1401 10.74 17.3901 10.71L18.3401 10.61C18.4401 10.61 18.4801 10.61 18.4801 10.46C18.4801 9.85999 18.4801 9.24998 18.4801 8.63998C18.4801 8.53998 18.4801 8.51 18.3501 8.5C18.0301 8.5 17.7101 8.41999 17.3501 8.39999C17.2626 8.40084 17.1779 8.36984 17.1117 8.3128C17.0454 8.25576 17.0022 8.17656 16.9901 8.08999C16.8246 7.19582 16.4848 6.34294 15.9901 5.57998C15.9367 5.52111 15.9071 5.44447 15.9071 5.36499C15.9071 5.2855 15.9367 5.20886 15.9901 5.14999L16.6201 4.36999C16.6901 4.28999 16.6801 4.23998 16.6201 4.16998C16.1901 3.74998 15.7601 3.31998 15.3401 2.88998C15.2601 2.80998 15.2101 2.80998 15.1301 2.88998L14.3601 3.51001C14.3028 3.56271 14.2279 3.59195 14.1501 3.59195C14.0723 3.59195 13.9973 3.56271 13.9401 3.51001C13.1749 2.9954 12.3148 2.63843 11.4101 2.45999C11.3261 2.45237 11.2482 2.41289 11.1924 2.34967C11.1366 2.28644 11.1072 2.20426 11.1101 2.11999C11.1101 1.78999 11.0301 1.46999 11.0101 1.11999C11.0101 1.01999 11.0101 0.989986 10.8601 0.989986H9.00005C8.90005 0.989986 8.86005 0.989991 8.85005 1.11999C8.85005 1.43999 8.77006 1.76999 8.74006 2.11999C8.74065 2.201 8.71143 2.27941 8.65795 2.34027C8.60447 2.40112 8.53047 2.44016 8.45006 2.44998C7.5381 2.63048 6.67124 2.99085 5.90006 3.51001C5.84668 3.55849 5.77716 3.58535 5.70506 3.58535C5.63295 3.58535 5.56343 3.55849 5.51005 3.51001L4.73005 2.88C4.65005 2.82 4.60006 2.8 4.52006 2.88C4.10006 3.31 3.67006 3.74 3.24006 4.16C3.15006 4.24 3.17006 4.28999 3.24006 4.36999C3.45006 4.61999 3.65006 4.88998 3.86006 5.13998C3.91276 5.19721 3.94202 5.2722 3.94202 5.35C3.94202 5.42781 3.91276 5.50276 3.86006 5.55999C3.36688 6.32378 3.02722 7.17633 2.86006 8.07C2.85253 8.15753 2.81235 8.23902 2.74751 8.29831C2.68267 8.35759 2.59791 8.3903 2.51005 8.38998C2.19005 8.38998 1.87005 8.45999 1.51005 8.48999C1.42005 8.48999 1.38006 8.48999 1.38006 8.61999C1.38006 9.23999 1.38006 9.86 1.38006 10.47C1.38006 10.56 1.38006 10.59 1.49006 10.59L2.49006 10.7C2.74006 10.7 2.80005 10.77 2.85005 11.02C3.0197 11.9067 3.35927 12.7523 3.85005 13.51C3.90417 13.5705 3.93409 13.6488 3.93409 13.73C3.93409 13.8112 3.90417 13.8895 3.85005 13.95C3.64005 14.21 3.44005 14.47 3.23005 14.72C3.15005 14.81 3.16005 14.86 3.23005 14.93L4.51005 16.21C4.59005 16.29 4.63005 16.28 4.71005 16.21L5.48005 15.59C5.54056 15.5359 5.61888 15.5059 5.70006 15.5059C5.78123 15.5059 5.85955 15.5359 5.92005 15.59C6.67589 16.0845 7.52217 16.4243 8.41005 16.59C8.66005 16.65 8.71005 16.71 8.73005 16.97C8.75005 17.23 8.81005 17.6 8.84005 17.92C8.84005 18.02 8.84005 18.04 8.98005 18.04H10.8101C10.9001 18.04 10.9301 18.04 10.9401 17.92C10.9401 17.6 11.0201 17.29 11.0501 16.97C11.0801 16.65 11.1101 16.65 11.3701 16.6C12.258 16.4239 13.1056 16.0848 13.8701 15.6C13.9278 15.5444 14.0049 15.5133 14.0851 15.5133C14.1652 15.5133 14.2423 15.5444 14.3001 15.6L15.0801 16.22L15.2501 16.29Z" fill="url(#paint0_linear_179_4)"/>
<path d="M5.73994 12.06C6.51276 11.1302 7.56483 10.4744 8.73994 10.19C8.4745 9.98281 8.26567 9.71195 8.13281 9.40253C7.99995 9.09312 7.94737 8.75514 7.97994 8.41999C7.99698 8.17396 8.0633 7.93388 8.17496 7.714C8.28662 7.49411 8.44135 7.2989 8.62994 7.13999C8.99683 6.8111 9.47221 6.62922 9.96494 6.62922C10.4577 6.62922 10.9331 6.8111 11.2999 7.13999C11.5133 7.33459 11.6792 7.57549 11.7849 7.84418C11.8906 8.11287 11.9334 8.40222 11.9099 8.69001C11.8919 8.97747 11.8119 9.25762 11.6756 9.51133C11.5392 9.76504 11.3497 9.98632 11.1199 10.16C12.2999 10.4327 13.3555 11.0907 14.1199 12.03C14.5992 11.2417 14.8422 10.3323 14.8199 9.41001C14.8199 9.19001 14.9099 9.07001 15.0799 9.07001C15.2499 9.07001 15.3299 9.17001 15.3399 9.38001C15.3738 10.7307 14.901 12.0451 14.0145 13.0648C13.1281 14.0845 11.8922 14.7356 10.5499 14.89C9.58107 15.0179 8.59569 14.8755 7.70271 14.4784C6.80973 14.0814 6.04393 13.4451 5.48994 12.64C4.90895 11.8159 4.56936 10.846 4.50936 9.83951C4.44936 8.83298 4.67133 7.82968 5.1503 6.94239C5.62927 6.0551 6.34626 5.319 7.22065 4.81687C8.09505 4.31474 9.09218 4.06649 10.0999 4.10001C10.3499 4.10001 10.4599 4.20001 10.4499 4.38001C10.4399 4.56001 10.3199 4.62 10.0799 4.62C9.05597 4.5932 8.04962 4.88996 7.20402 5.46805C6.35842 6.04615 5.71664 6.87614 5.36994 7.84C5.10294 8.51285 4.99125 9.23728 5.04319 9.9593C5.09513 10.6813 5.30937 11.3823 5.66994 12.01L5.73994 12.06ZM9.91994 14.46C10.6454 14.4618 11.3623 14.3032 12.0192 13.9954C12.6762 13.6877 13.2569 13.2385 13.7199 12.68C13.7429 12.6612 13.7615 12.6376 13.7742 12.6108C13.7869 12.584 13.7935 12.5547 13.7935 12.525C13.7935 12.4953 13.7869 12.466 13.7742 12.4392C13.7615 12.4124 13.7429 12.3888 13.7199 12.37C13.2602 11.8144 12.6834 11.3672 12.0309 11.0602C11.3784 10.7532 10.6661 10.594 9.94494 10.594C9.22379 10.594 8.51153 10.7532 7.85899 11.0602C7.20644 11.3672 6.62971 11.8144 6.16994 12.37C6.06994 12.49 6.04994 12.56 6.16994 12.69C6.62894 13.2397 7.20218 13.6828 7.84979 13.9884C8.4974 14.2941 9.20383 14.455 9.91994 14.46ZM9.91994 7.15C9.63205 7.14809 9.35003 7.23132 9.10932 7.38926C8.86861 7.54719 8.67997 7.77278 8.56711 8.03763C8.45425 8.30249 8.42221 8.59477 8.47503 8.87778C8.52784 9.16079 8.66314 9.42189 8.86392 9.62821C9.06471 9.83453 9.32201 9.9769 9.60347 10.0374C9.88494 10.0979 10.178 10.0738 10.4458 9.96818C10.7137 9.86256 10.9443 9.68014 11.1087 9.44382C11.2731 9.2075 11.364 8.92782 11.3699 8.63999C11.3784 8.26272 11.2405 7.89684 10.9851 7.61906C10.7296 7.34127 10.3766 7.17317 9.99994 7.15H9.91994Z" fill="url(#paint1_linear_179_4)"/>
<path d="M14.8101 7.23001C14.8113 7.2842 14.7956 7.33741 14.7651 7.38223C14.7346 7.42706 14.6909 7.46126 14.6401 7.48001C14.5879 7.50194 14.5295 7.50386 14.476 7.48541C14.4224 7.46696 14.3776 7.42943 14.3501 7.38C14.2001 7.14 14.0601 6.89998 13.9101 6.66998C13.8934 6.64444 13.882 6.61586 13.8766 6.58588C13.8711 6.5559 13.8716 6.52514 13.8781 6.49536C13.8846 6.46559 13.897 6.4374 13.9145 6.41245C13.932 6.38749 13.9543 6.36627 13.9801 6.35001C14.0006 6.32822 14.0254 6.31085 14.0529 6.29898C14.0804 6.28712 14.1101 6.28101 14.1401 6.28101C14.17 6.28101 14.1997 6.28712 14.2272 6.29898C14.2547 6.31085 14.2795 6.32822 14.3001 6.35001C14.5116 6.59331 14.6806 6.87051 14.8001 7.16998C14.8001 7.16998 14.8001 7.22001 14.8101 7.23001Z" fill="url(#paint2_linear_179_4)"/>
<path d="M12.2 4.63998L12.32 4.69C12.5407 4.79036 12.7516 4.91086 12.95 5.04998C12.9847 5.06504 13.0156 5.08777 13.0402 5.11648C13.0649 5.14519 13.0827 5.17914 13.0923 5.21572C13.1019 5.25231 13.1031 5.2906 13.0958 5.32772C13.0885 5.36484 13.0728 5.3998 13.05 5.42999C13.0303 5.45922 13.0046 5.48395 12.9747 5.50256C12.9447 5.52116 12.9112 5.53324 12.8762 5.53796C12.8413 5.54268 12.8058 5.53995 12.7719 5.52996C12.7381 5.51997 12.7068 5.50296 12.68 5.48C12.48 5.35 12.27 5.24 12.06 5.13C12.006 5.10393 11.9631 5.05926 11.9392 5.00417C11.9153 4.94909 11.9121 4.88726 11.93 4.82998C11.9477 4.7729 11.9837 4.72331 12.0326 4.68893C12.0815 4.65455 12.1403 4.63731 12.2 4.63998Z" fill="url(#paint3_linear_179_4)"/>
<defs>
<linearGradient id="paint0_linear_179_4" x1="117.58" y1="11.24" x2="-45.0999" y2="8.68999" gradientUnits="userSpaceOnUse">
<stop stop-color="#006093"/>
<stop offset="1" stop-color="#1C3B70"/>
</linearGradient>
<linearGradient id="paint1_linear_179_4" x1="117.58" y1="11.24" x2="-45.1001" y2="8.69" gradientUnits="userSpaceOnUse">
<stop stop-color="#006093"/>
<stop offset="1" stop-color="#1C3B70"/>
</linearGradient>
<linearGradient id="paint2_linear_179_4" x1="117.62" y1="8.51001" x2="-45.0501" y2="5.95999" gradientUnits="userSpaceOnUse">
<stop stop-color="#006093"/>
<stop offset="1" stop-color="#1C3B70"/>
</linearGradient>
<linearGradient id="paint3_linear_179_4" x1="117.65" y1="6.74001" x2="-45.0199" y2="4.19006" gradientUnits="userSpaceOnUse">
<stop stop-color="#006093"/>
<stop offset="1" stop-color="#1C3B70"/>
</linearGradient>
</defs>
</svg>
