<svg width="19" height="19" viewBox="0 0 19 19" fill="none" xmlns="http://www.w3.org/2000/svg">
<path d="M0 1.16379C0.102224 0.958296 0.266691 0.790335 0.469986 0.683807C0.759986 0.513807 1.04999 0.323789 1.32999 0.133789C1.44338 0.0470182 1.5822 0 1.72499 0C1.86778 0 2.0066 0.0470182 2.12 0.133789C2.42 0.333789 2.73999 0.513785 3.03999 0.723785C3.07547 0.752186 3.11955 0.76767 3.16499 0.76767C3.21043 0.76767 3.25452 0.752186 3.28999 0.723785C3.59999 0.523785 3.92 0.333779 4.23 0.123779C4.33385 0.045886 4.46017 0.00378418 4.59 0.00378418C4.71982 0.00378418 4.84614 0.045886 4.95 0.123779C5.27 0.323779 5.58 0.513785 5.89 0.723785C5.9285 0.758222 5.97834 0.777283 6.03 0.777283C6.08165 0.777283 6.1315 0.758222 6.17 0.723785C6.46 0.533785 6.77 0.353778 7.06 0.153778C7.1734 0.0670072 7.3122 0.0200195 7.45499 0.0200195C7.59777 0.0200195 7.73659 0.0670072 7.84999 0.153778C8.13999 0.353778 8.45 0.533795 8.75 0.733795C8.78782 0.765538 8.83562 0.782928 8.88499 0.782928C8.93437 0.782928 8.98217 0.765538 9.01999 0.733795L9.93999 0.143799C10.0478 0.0618821 10.1796 0.0175171 10.315 0.0175171C10.4504 0.0175171 10.5821 0.0618821 10.69 0.143799L11.69 0.783783C11.7996 0.846791 11.8896 0.939125 11.9496 1.05042C12.0097 1.16171 12.0375 1.28755 12.03 1.41379C12.03 3.08379 12.03 4.75379 12.03 6.41379C12.03 6.68379 12.03 6.64379 12.25 6.63379C13.637 6.61428 14.9839 7.09948 16.0398 7.99905C17.0958 8.89863 17.7888 10.1513 17.99 11.5238L18.05 11.9738V12.7438L17.99 13.1838C17.826 14.2847 17.3454 15.3142 16.6068 16.1469C15.8682 16.9796 14.9035 17.5795 13.83 17.8738C13.4403 17.9607 13.0465 18.0274 12.65 18.0738H12.02C11.8907 18.054 11.7592 18.054 11.63 18.0738C10.5208 17.9222 9.47905 17.4534 8.62999 16.7238C8.61685 16.7089 8.6007 16.697 8.5826 16.6888C8.56449 16.6806 8.54486 16.6764 8.52499 16.6764C8.50513 16.6764 8.4855 16.6806 8.46739 16.6888C8.44929 16.697 8.43314 16.7089 8.42 16.7238L7.84 17.0938C7.7284 17.1758 7.5935 17.2201 7.45499 17.2201C7.31648 17.2201 7.18159 17.1758 7.06999 17.0938L6.14999 16.5038C6.11863 16.475 6.07758 16.459 6.03499 16.459C5.9924 16.459 5.95137 16.475 5.92 16.5038L5.00999 17.0838C4.89418 17.1738 4.75168 17.2227 4.605 17.2227C4.45831 17.2227 4.31581 17.1738 4.2 17.0838L3.28999 16.5038C3.25863 16.475 3.21758 16.459 3.17499 16.459C3.1324 16.459 3.09137 16.475 3.06 16.5038L2.14999 17.0838C2.03193 17.173 1.88798 17.2213 1.73999 17.2213C1.592 17.2213 1.44805 17.173 1.32999 17.0838C1.03999 16.8838 0.739987 16.6938 0.439987 16.5138C0.246319 16.412 0.0942556 16.2457 0.00999451 16.0438L0 1.16379ZM0.599991 8.57379V15.6538C0.593867 15.7127 0.605919 15.772 0.634521 15.8239C0.663124 15.8757 0.70691 15.9176 0.759995 15.9438L1.61 16.4838C1.64356 16.5162 1.68837 16.5343 1.735 16.5343C1.78163 16.5343 1.82645 16.5162 1.86 16.4838C2.15 16.2838 2.46 16.1138 2.75 15.9138C2.86665 15.8213 3.01113 15.771 3.15999 15.771C3.30885 15.771 3.45334 15.8213 3.56999 15.9138L4.45999 16.4838C4.49622 16.5148 4.54233 16.5318 4.59 16.5318C4.63767 16.5318 4.68376 16.5148 4.71999 16.4838L5.67 15.8738C5.77407 15.8058 5.89568 15.7696 6.01999 15.7696C6.1443 15.7696 6.26592 15.8058 6.37 15.8738C6.58754 15.9894 6.79494 16.1233 6.98999 16.2738C7.04429 16.3425 7.11343 16.398 7.19223 16.4361C7.27103 16.4743 7.35744 16.4941 7.44499 16.4941C7.53254 16.4941 7.61895 16.4743 7.69775 16.4361C7.77655 16.398 7.8457 16.3425 7.89999 16.2738C8.04999 16.2138 8.02999 16.1538 7.89999 16.0338C7.16084 15.1899 6.69529 14.1415 6.56494 13.0273C6.43459 11.9131 6.64558 10.7855 7.17 9.79379C7.54961 9.01131 8.11065 8.33084 8.80641 7.80902C9.50217 7.2872 10.3125 6.93913 11.17 6.79379C11.26 6.79379 11.36 6.79379 11.36 6.63379C11.36 4.91379 11.36 3.2038 11.36 1.4938C11.3646 1.4558 11.3563 1.41734 11.3363 1.38467C11.3163 1.35201 11.2859 1.32702 11.25 1.31378L10.35 0.733795C10.3164 0.701411 10.2716 0.683319 10.225 0.683319C10.1784 0.683319 10.1335 0.701411 10.1 0.733795L9.17999 1.32379C9.06933 1.40353 8.93639 1.44644 8.79999 1.44644C8.66359 1.44644 8.53066 1.40353 8.42 1.32379C8.11 1.11379 7.79 0.923785 7.48 0.723785C7.44452 0.695385 7.40044 0.679932 7.355 0.679932C7.30955 0.679932 7.26547 0.695385 7.23 0.723785L6.31 1.31378C6.20149 1.39416 6.07003 1.43756 5.935 1.43756C5.79996 1.43756 5.6685 1.39416 5.56 1.31378C5.25 1.10378 4.93 0.913806 4.62 0.713806C4.58863 0.684994 4.54758 0.669006 4.50499 0.669006C4.4624 0.669006 4.42137 0.684994 4.39 0.713806L3.45 1.3038C3.34059 1.38654 3.20716 1.4313 3.06999 1.4313C2.93282 1.4313 2.7994 1.38654 2.68999 1.3038C2.38999 1.1138 2.06999 0.923806 1.76999 0.713806C1.73376 0.68282 1.68767 0.665771 1.64 0.665771C1.59233 0.665771 1.54622 0.68282 1.50999 0.713806C1.22999 0.893806 0.949988 1.08378 0.659988 1.25378C0.609567 1.27977 0.568229 1.32045 0.541443 1.37045C0.514657 1.42045 0.503693 1.47741 0.509995 1.53378L0.599991 8.57379ZM12.35 7.22379C11.3365 7.22379 10.3458 7.52459 9.5034 8.08807C8.661 8.65156 8.00477 9.45238 7.61784 10.3891C7.23092 11.3258 7.1307 12.3563 7.32988 13.35C7.52906 14.3438 8.01869 15.256 8.73674 15.9713C9.45479 16.6865 10.369 17.1725 11.3634 17.3678C12.3579 17.5631 13.388 17.4589 14.3232 17.0683C15.2584 16.6777 16.0567 16.0183 16.6169 15.1737C17.177 14.3291 17.4739 13.3373 17.47 12.3238C17.4647 10.9694 16.9229 9.6722 15.9633 8.71634C15.0037 7.76047 13.7044 7.22378 12.35 7.22379Z" fill="url(#paint0_linear_178_3)"/>
<path d="M3.61005 4.87377C3.61005 5.12377 3.61005 5.37379 3.61005 5.61379C3.61005 5.85379 3.61003 5.75377 3.72003 5.78377C4.03569 5.87169 4.31389 6.06055 4.51209 6.32149C4.71028 6.58243 4.81758 6.9011 4.81758 7.22878C4.81758 7.55645 4.71028 7.87512 4.51209 8.13606C4.31389 8.39701 4.03569 8.58587 3.72003 8.67378C3.62003 8.67378 3.60004 8.74379 3.60004 8.83379C3.6101 8.91012 3.6101 8.98743 3.60004 9.06377C3.59305 9.1347 3.56103 9.20082 3.50972 9.25029C3.45841 9.29977 3.39118 9.32938 3.32004 9.33379C3.24863 9.33563 3.17877 9.31273 3.12228 9.269C3.0658 9.22527 3.02615 9.16336 3.01004 9.09377C3.09004 8.76377 2.85005 8.69378 2.61005 8.57378C2.37102 8.46011 2.16852 8.28192 2.02539 8.05928C1.88227 7.83664 1.80421 7.57841 1.80003 7.31377C1.79142 7.27077 1.79202 7.22645 1.8018 7.1837C1.81159 7.14095 1.83033 7.10075 1.8568 7.06578C1.88326 7.03081 1.91684 7.00185 1.95532 6.98082C1.99381 6.95979 2.03631 6.94716 2.08003 6.94377C2.26003 6.94377 2.38004 7.06379 2.40004 7.27379C2.40827 7.42974 2.45564 7.58109 2.53778 7.71391C2.61992 7.84674 2.73419 7.95674 2.87004 8.03377C2.97004 8.09377 3.00005 8.03378 3.00005 7.95378V6.42378C3.00288 6.40725 3.00221 6.3903 2.99809 6.37404C2.99397 6.35778 2.98649 6.34256 2.97612 6.32936C2.96576 6.31617 2.95274 6.30529 2.93791 6.29744C2.92308 6.28959 2.90678 6.28493 2.89005 6.28377C2.57722 6.19222 2.30179 6.00315 2.10393 5.74413C1.90606 5.4851 1.79609 5.16966 1.79004 4.84377C1.78969 4.51361 1.89828 4.19257 2.09897 3.93041C2.29966 3.66824 2.58124 3.47963 2.90004 3.39379C2.93287 3.38656 2.96163 3.36688 2.98027 3.33891C2.99892 3.31095 3.006 3.27687 3.00005 3.24379C2.99506 3.15386 2.99506 3.0637 3.00005 2.97377C3.01237 2.90033 3.05247 2.83446 3.11205 2.78978C3.17162 2.7451 3.24609 2.72505 3.32004 2.73378C3.35545 2.73225 3.39079 2.73826 3.42371 2.75142C3.45662 2.76459 3.48635 2.7846 3.51094 2.81014C3.53553 2.83567 3.5544 2.86614 3.56632 2.89952C3.57823 2.93291 3.5829 2.96844 3.58003 3.00377C3.58003 3.29377 3.69004 3.37378 3.92004 3.48378C4.17561 3.58687 4.39476 3.76359 4.54967 3.9915C4.70458 4.21941 4.78824 4.48822 4.79004 4.76378C4.79866 4.80528 4.79868 4.8481 4.7901 4.8896C4.78152 4.93111 4.76453 4.97041 4.74016 5.00508C4.71579 5.03976 4.68458 5.06907 4.64844 5.0912C4.6123 5.11334 4.57201 5.12783 4.53005 5.13378C4.48701 5.13991 4.44314 5.1363 4.40169 5.12319C4.36024 5.11008 4.32226 5.0878 4.29057 5.05803C4.25889 5.02827 4.2343 4.99177 4.21863 4.95122C4.20296 4.91067 4.19661 4.86712 4.20004 4.82378C4.1936 4.66727 4.14813 4.51486 4.0678 4.38039C3.98746 4.24591 3.8748 4.13364 3.74004 4.05379C3.64004 3.99379 3.59004 3.99378 3.59004 4.13378C3.59004 4.27378 3.61005 4.62377 3.61005 4.87377ZM3.61005 7.21379C3.61005 7.45379 3.61005 7.69379 3.61005 7.93379C3.61005 8.17379 3.61005 8.07378 3.75005 8.01378C3.89194 7.93634 4.01035 7.8221 4.09285 7.68309C4.17535 7.54408 4.21887 7.38542 4.21887 7.22377C4.21887 7.06212 4.17535 6.90346 4.09285 6.76445C4.01035 6.62544 3.89194 6.51123 3.75005 6.43379C3.65005 6.37379 3.62004 6.43378 3.62004 6.51378C3.62004 6.59378 3.61005 6.98379 3.61005 7.21379ZM3.01004 4.82378V4.09377C3.01004 4.00377 3.01005 3.96379 2.89005 4.02379C2.7431 4.09874 2.62017 4.21348 2.53529 4.35494C2.45042 4.49639 2.40702 4.65885 2.41004 4.82378C2.41097 4.98783 2.45723 5.14842 2.5437 5.28783C2.63017 5.42724 2.75349 5.54006 2.90004 5.61379C2.98004 5.61379 3.01004 5.61378 3.01004 5.54378V4.82378Z" fill="url(#paint1_linear_178_3)"/>
<path d="M8.15009 4.79379H6.15009C6.08047 4.8042 6.00969 4.8042 5.94008 4.79379C5.87852 4.77719 5.82415 4.74077 5.78537 4.69016C5.74659 4.63954 5.72559 4.57756 5.72559 4.5138C5.72559 4.45003 5.74659 4.38805 5.78537 4.33743C5.82415 4.28682 5.87852 4.2504 5.94008 4.2338C6.00973 4.22395 6.08043 4.22395 6.15009 4.2338H10.3101C10.379 4.24603 10.4408 4.28359 10.4834 4.33911C10.5259 4.39464 10.5462 4.46408 10.5401 4.53378C10.5412 4.60014 10.5186 4.66472 10.4765 4.716C10.4344 4.76729 10.3754 4.80194 10.3101 4.81378H8.15009V4.79379Z" fill="url(#paint2_linear_178_3)"/>
<path d="M8.14008 2.71381H10.1401C10.3801 2.71381 10.5201 2.82378 10.5201 3.00378C10.5201 3.18378 10.3801 3.31378 10.1501 3.31378H6.07007C5.84007 3.31378 5.70007 3.18378 5.70007 3.00378C5.70007 2.82378 5.84007 2.71381 6.07007 2.71381H8.14008Z" fill="url(#paint3_linear_178_3)"/>
<path d="M8.11998 6.31377H6.05998C6.019 6.31935 5.9773 6.3164 5.93752 6.3051C5.89773 6.2938 5.8607 6.27439 5.82877 6.24809C5.79684 6.2218 5.77069 6.18918 5.75197 6.1523C5.73325 6.11542 5.72235 6.07506 5.71997 6.03377C5.71989 5.99001 5.72878 5.9467 5.74609 5.90651C5.76341 5.86632 5.7888 5.83012 5.82066 5.80013C5.85253 5.77014 5.8902 5.74699 5.93137 5.73213C5.97253 5.71728 6.01631 5.71106 6.05998 5.71379H10.25C10.3261 5.71629 10.3984 5.74765 10.4523 5.8015C10.5061 5.85535 10.5375 5.92765 10.54 6.00377C10.5414 6.04354 10.5346 6.0832 10.52 6.12023C10.5054 6.15726 10.4834 6.19087 10.4552 6.21901C10.4271 6.24715 10.3934 6.26922 10.3564 6.2838C10.3194 6.29838 10.2797 6.30519 10.24 6.30379H8.11998V6.31377Z" fill="url(#paint4_linear_178_3)"/>
<path d="M3.60006 14.1538H1.86007C1.63007 14.1538 1.50006 14.0238 1.51006 13.8238C1.52006 13.6238 1.65007 13.5538 1.86007 13.5538H5.35006C5.59006 13.5538 5.72005 13.6638 5.72005 13.8538C5.72005 14.0438 5.59006 14.1538 5.34006 14.1538H3.60006Z" fill="url(#paint5_linear_178_3)"/>
<path d="M3.62 10.5438H5.46999C5.53283 10.5562 5.59005 10.5885 5.63326 10.6358C5.67646 10.6831 5.70339 10.743 5.7101 10.8067C5.71681 10.8704 5.70294 10.9346 5.67053 10.9898C5.63813 11.0451 5.58888 11.0885 5.53 11.1138C5.47381 11.1241 5.4162 11.1241 5.36 11.1138H1.87C1.81097 11.129 1.74902 11.129 1.68999 11.1138C1.63322 11.0844 1.58775 11.0371 1.56063 10.9793C1.5335 10.9214 1.52624 10.8562 1.54 10.7938C1.54995 10.7238 1.58693 10.6605 1.64302 10.6175C1.69911 10.5745 1.76984 10.5552 1.84 10.5638L3.62 10.5438Z" fill="url(#paint6_linear_178_3)"/>
<path d="M3.61007 12.6438H1.76007C1.69367 12.6389 1.63142 12.6097 1.58528 12.5617C1.53914 12.5137 1.51235 12.4503 1.51007 12.3838C1.50063 12.3153 1.51686 12.2458 1.55563 12.1885C1.5944 12.1313 1.65296 12.0904 1.72006 12.0738C1.78296 12.0633 1.84716 12.0633 1.91006 12.0738H5.45007C5.52693 12.0837 5.59727 12.1221 5.64725 12.1813C5.69722 12.2406 5.7232 12.3164 5.72006 12.3938C5.71747 12.469 5.68577 12.5402 5.63167 12.5924C5.57756 12.6446 5.50528 12.6738 5.43007 12.6738H3.61007V12.6438Z" fill="url(#paint7_linear_178_3)"/>
<path d="M6.93997 7.22379H7.78998C7.99998 7.22379 8.12997 7.3438 8.12997 7.5238C8.13036 7.5668 8.1215 7.60938 8.10399 7.64865C8.08648 7.68793 8.06072 7.72298 8.02847 7.75143C7.99623 7.77989 7.95825 7.80105 7.9171 7.81354C7.87595 7.82602 7.8326 7.82953 7.78998 7.82379C7.21998 7.82379 6.63998 7.82379 6.06998 7.82379C6.02768 7.82936 5.98468 7.82614 5.94368 7.81433C5.90268 7.80252 5.86457 7.78238 5.83171 7.75516C5.79886 7.72794 5.77197 7.69422 5.75275 7.65613C5.73352 7.61804 5.72236 7.57638 5.71997 7.53378C5.71997 7.35378 5.85997 7.23379 6.07997 7.22379H6.93997Z" fill="url(#paint8_linear_178_3)"/>
<path d="M6.33003 9.3238C6.22003 9.3238 6.11005 9.3238 6.00005 9.3238C5.92488 9.32121 5.85365 9.28953 5.80141 9.23542C5.74917 9.18131 5.71999 9.109 5.72003 9.03379C5.7187 8.99702 5.72462 8.96034 5.73747 8.92585C5.75032 8.89137 5.76985 8.85977 5.79492 8.83283C5.82 8.8059 5.85014 8.78418 5.88362 8.7689C5.9171 8.75362 5.95326 8.7451 5.99004 8.74381C6.21292 8.72382 6.43715 8.72382 6.66004 8.74381C6.69732 8.74496 6.73395 8.7538 6.76764 8.76982C6.80133 8.78583 6.83133 8.80865 6.85576 8.83683C6.88019 8.86502 6.89852 8.89798 6.90958 8.9336C6.92064 8.96922 6.92421 9.00674 6.92005 9.0438C6.92277 9.07876 6.91838 9.11391 6.90717 9.14713C6.89595 9.18036 6.87812 9.21097 6.85477 9.23713C6.83141 9.26329 6.803 9.28446 6.77126 9.29936C6.73951 9.31425 6.70509 9.32256 6.67005 9.3238C6.56005 9.3238 6.44003 9.3238 6.33003 9.3238Z" fill="url(#paint9_linear_178_3)"/>
<path d="M12.4301 10.2338H14.0101C14.1101 10.2338 14.1501 10.2338 14.1801 10.1038C14.2022 9.99969 14.2508 9.90305 14.3212 9.82316C14.3915 9.74327 14.4812 9.68282 14.5817 9.64765C14.6821 9.61249 14.79 9.6038 14.8948 9.62239C14.9996 9.64097 15.0978 9.68622 15.1801 9.75379C15.6001 10.0438 16.0001 10.3638 16.3901 10.6938C16.4586 10.7471 16.5141 10.8153 16.5522 10.8933C16.5904 10.9713 16.6102 11.057 16.6102 11.1438C16.6102 11.2306 16.5904 11.3163 16.5522 11.3943C16.5141 11.4723 16.4586 11.5405 16.3901 11.5938C16.0101 11.9138 15.6201 12.2238 15.2101 12.5138C15.1278 12.5814 15.0296 12.6266 14.9248 12.6452C14.82 12.6638 14.7122 12.6551 14.6117 12.6199C14.5112 12.5848 14.4215 12.5243 14.3512 12.4444C14.2808 12.3645 14.2322 12.2679 14.2101 12.1638C14.2101 12.0438 14.1201 12.0438 14.0301 12.0438H11.0301C10.5301 12.0438 10.3101 11.8238 10.3101 11.3238V10.8838C10.3043 10.7978 10.3168 10.7116 10.3468 10.6308C10.3768 10.55 10.4236 10.4764 10.484 10.415C10.5445 10.3536 10.6173 10.3057 10.6976 10.2745C10.778 10.2432 10.864 10.2294 10.9501 10.2338H12.4301ZM14.7701 10.2338C14.7664 10.2804 14.7664 10.3272 14.7701 10.3738C14.7701 10.7638 14.7001 10.8238 14.3201 10.8238H11.3201C10.8901 10.8238 10.8901 10.8238 10.8901 11.2538C10.8901 11.3938 10.8901 11.4338 11.0601 11.4338H14.4701C14.7001 11.4338 14.8001 11.5438 14.8101 11.7738C14.791 11.8527 14.791 11.9349 14.8101 12.0138L15.9901 11.1338L14.7701 10.2338Z" fill="url(#paint10_linear_178_3)"/>
<path d="M12.26 14.4538H10.71C10.6 14.4538 10.55 14.4538 10.52 14.5938C10.4978 14.6979 10.4493 14.7946 10.3789 14.8745C10.3086 14.9543 10.2189 15.0148 10.1184 15.0499C10.0179 15.0851 9.91012 15.0938 9.80531 15.0752C9.70051 15.0566 9.60225 15.0114 9.52 14.9438C9.1 14.6438 8.69001 14.3238 8.29001 13.9938C8.22313 13.9394 8.1692 13.8708 8.13217 13.793C8.09514 13.7151 8.07593 13.63 8.07593 13.5438C8.07593 13.4576 8.09514 13.3725 8.13217 13.2946C8.1692 13.2168 8.22313 13.1482 8.29001 13.0938C8.68001 12.7738 9.07 12.4638 9.47 12.1738C9.55224 12.1062 9.65051 12.061 9.75531 12.0424C9.86011 12.0238 9.96794 12.0325 10.0684 12.0677C10.1689 12.1028 10.2586 12.1633 10.3289 12.2431C10.3993 12.323 10.4478 12.4197 10.47 12.5238C10.47 12.6538 10.57 12.6438 10.66 12.6438H13.66C14.19 12.6438 14.41 12.8638 14.41 13.3938V13.7938C14.4251 13.8896 14.4174 13.9876 14.3877 14.0799C14.358 14.1722 14.3071 14.2562 14.239 14.3253C14.171 14.3943 14.0876 14.4465 13.9957 14.4775C13.9039 14.5085 13.806 14.5175 13.71 14.5038L12.26 14.4538ZM9.91 14.4538C9.91804 14.4366 9.92221 14.4178 9.92221 14.3988C9.92221 14.3798 9.91804 14.361 9.91 14.3438C9.91 13.9338 9.98001 13.8838 10.39 13.8838H13.39C13.84 13.8838 13.84 13.8838 13.83 13.4238C13.83 13.3038 13.83 13.2738 13.68 13.2738H10.34C10.04 13.2738 9.95 13.1838 9.94 12.8938C9.94 12.8338 9.94 12.7638 9.94 12.7038L9.11002 13.3338C9.01002 13.4038 8.83 13.4838 8.83 13.5738C8.83 13.6638 9.01002 13.7438 9.11002 13.8238C9.39668 14.0238 9.66334 14.2238 9.91 14.4238V14.4538Z" fill="url(#paint11_linear_178_3)"/>
<defs>
<linearGradient id="paint0_linear_178_3" x1="40.66" y1="9.03379" x2="-131.1" y2="9.03379" gradientUnits="userSpaceOnUse">
<stop stop-color="#006093"/>
<stop offset="1" stop-color="#1C3B70"/>
</linearGradient>
<linearGradient id="paint1_linear_178_3" x1="40.6601" y1="6.02379" x2="-131.1" y2="6.02379" gradientUnits="userSpaceOnUse">
<stop stop-color="#006093"/>
<stop offset="1" stop-color="#1C3B70"/>
</linearGradient>
<linearGradient id="paint2_linear_178_3" x1="40.6601" y1="4.51379" x2="-131.1" y2="4.51379" gradientUnits="userSpaceOnUse">
<stop stop-color="#006093"/>
<stop offset="1" stop-color="#1C3B70"/>
</linearGradient>
<linearGradient id="paint3_linear_178_3" x1="40.66" y1="3.01379" x2="-131.1" y2="3.01379" gradientUnits="userSpaceOnUse">
<stop stop-color="#006093"/>
<stop offset="1" stop-color="#1C3B70"/>
</linearGradient>
<linearGradient id="paint4_linear_178_3" x1="40.66" y1="6.01378" x2="-131.1" y2="6.01378" gradientUnits="userSpaceOnUse">
<stop stop-color="#006093"/>
<stop offset="1" stop-color="#1C3B70"/>
</linearGradient>
<linearGradient id="paint5_linear_178_3" x1="40.66" y1="13.8538" x2="-131.1" y2="13.8538" gradientUnits="userSpaceOnUse">
<stop stop-color="#006093"/>
<stop offset="1" stop-color="#1C3B70"/>
</linearGradient>
<linearGradient id="paint6_linear_178_3" x1="40.66" y1="10.8438" x2="-131.1" y2="10.8438" gradientUnits="userSpaceOnUse">
<stop stop-color="#006093"/>
<stop offset="1" stop-color="#1C3B70"/>
</linearGradient>
<linearGradient id="paint7_linear_178_3" x1="40.66" y1="12.3438" x2="-131.1" y2="12.3438" gradientUnits="userSpaceOnUse">
<stop stop-color="#006093"/>
<stop offset="1" stop-color="#1C3B70"/>
</linearGradient>
<linearGradient id="paint8_linear_178_3" x1="40.66" y1="7.52378" x2="-131.1" y2="7.52378" gradientUnits="userSpaceOnUse">
<stop stop-color="#006093"/>
<stop offset="1" stop-color="#1C3B70"/>
</linearGradient>
<linearGradient id="paint9_linear_178_3" x1="40.6604" y1="9.03381" x2="-131.101" y2="9.03381" gradientUnits="userSpaceOnUse">
<stop stop-color="#006093"/>
<stop offset="1" stop-color="#1C3B70"/>
</linearGradient>
<linearGradient id="paint10_linear_178_3" x1="40.6601" y1="11.1438" x2="-131.1" y2="11.1438" gradientUnits="userSpaceOnUse">
<stop stop-color="#006093"/>
<stop offset="1" stop-color="#1C3B70"/>
</linearGradient>
<linearGradient id="paint11_linear_178_3" x1="40.66" y1="13.5538" x2="-131.1" y2="13.5538" gradientUnits="userSpaceOnUse">
<stop stop-color="#006093"/>
<stop offset="1" stop-color="#1C3B70"/>
</linearGradient>
</defs>
</svg>
