<svg width="13" height="19" viewBox="0 0 13 19" fill="none" xmlns="http://www.w3.org/2000/svg">
<path d="M12.81 6.73004C12.81 5.13874 12.1778 3.61258 11.0526 2.48737C9.92738 1.36215 8.40126 0.730042 6.80996 0.730042C5.21866 0.730042 3.69254 1.36215 2.56732 2.48737C1.4421 3.61258 0.809956 5.13874 0.809956 6.73004C0.806741 7.97143 1.19517 9.18216 1.91996 10.19C3.46996 12.86 3.82996 13.97 3.91996 14.77H9.74996C9.80996 13.97 10.17 12.86 11.75 10.19C12.451 9.17325 12.8211 7.96498 12.81 6.73004ZM8.91996 10.73C8.4804 11.0459 8.1267 11.4665 7.89094 11.9537C7.65519 12.441 7.54486 12.9793 7.56996 13.52V14.83H7.19996V13.52C7.17283 12.9805 7.27167 12.4422 7.48863 11.9475C7.70559 11.4528 8.03471 11.0155 8.44996 10.67C8.18725 10.5728 7.9652 10.3895 7.81996 10.15C7.7206 10.3282 7.57562 10.4768 7.39988 10.5805C7.22415 10.6842 7.024 10.7393 6.81996 10.7401C6.61634 10.7372 6.417 10.6813 6.24161 10.5778C6.06623 10.4743 5.92089 10.3269 5.81996 10.15C5.67609 10.3868 5.45817 10.5696 5.19996 10.67C5.61218 11.0175 5.93858 11.4555 6.15367 11.9498C6.36876 12.4442 6.46674 12.9816 6.43996 13.52V14.83H6.06996V13.52C6.09506 12.9793 5.98473 12.441 5.74897 11.9537C5.51322 11.4665 5.15951 11.0459 4.71996 10.73C4.51412 10.7183 4.31486 10.6533 4.14171 10.5414C3.96855 10.4295 3.82744 10.2745 3.7322 10.0917C3.63696 9.90882 3.59086 9.70432 3.59842 9.49829C3.60598 9.29226 3.66694 9.09177 3.77532 8.91638C3.8837 8.741 4.03579 8.59678 4.21668 8.49786C4.39757 8.39895 4.60106 8.34872 4.8072 8.35211C5.01334 8.3555 5.21507 8.4124 5.39261 8.51721C5.57014 8.62203 5.71741 8.77116 5.81996 8.95001C5.92238 8.77446 6.06807 8.62806 6.24312 8.52478C6.41818 8.4215 6.61676 8.3648 6.81996 8.36005C7.02357 8.36286 7.22293 8.41874 7.39831 8.52222C7.5737 8.62569 7.71903 8.77315 7.81996 8.95001C7.92311 8.77509 8.06895 8.62919 8.24385 8.526C8.41874 8.42281 8.61697 8.36574 8.81996 8.36005C9.11808 8.37363 9.40021 8.49869 9.61042 8.71051C9.82064 8.92233 9.9436 9.20545 9.95492 9.50366C9.96625 9.80187 9.86512 10.0934 9.67157 10.3206C9.47802 10.5477 9.20619 10.6939 8.90996 10.73H8.91996Z" fill="white"/>
<path d="M3.90002 15.84C3.90132 16.4706 4.08164 17.0879 4.42002 17.6201C4.68954 18.003 5.04989 18.3131 5.46876 18.5225C5.88763 18.732 6.35193 18.8342 6.82002 18.82C7.28645 18.8325 7.74873 18.7295 8.16571 18.5201C8.58269 18.3108 8.94145 18.0016 9.21002 17.6201C9.5484 17.0879 9.72873 16.4706 9.73003 15.84V15.39H3.90002V15.84Z" fill="white"/>
</svg>
