<svg width="59" height="59" viewBox="0 0 59 59" fill="none" xmlns="http://www.w3.org/2000/svg">
<path d="M30.1 9.92999C30.9282 10.1298 31.6709 10.5887 32.22 11.2399C36.6334 15.6733 41.05 20.0933 45.47 24.4999C45.91 24.8908 46.2162 25.4098 46.3454 25.9839C46.4746 26.5581 46.4202 27.1583 46.19 27.6999C46.0144 28.0905 45.7509 28.4353 45.4201 28.7073C45.0893 28.9793 44.7001 29.1712 44.2829 29.268C43.8657 29.3648 43.4317 29.3639 43.0149 29.2653C42.5981 29.1668 42.2097 28.9733 41.88 28.6999C41.7 28.5499 41.54 28.3899 41.38 28.2299L35.12 21.9699C34.0224 21.0833 33.146 19.9536 32.56 18.67C32.4926 18.831 32.4685 19.0068 32.49 19.18V45.7299C32.5238 46.1533 32.4673 46.5791 32.3242 46.9791C32.1811 47.379 31.9547 47.7441 31.66 48.05C31.301 48.4322 30.8348 48.6968 30.3226 48.8093C29.8104 48.9217 29.2762 48.8767 28.79 48.68C28.2695 48.4969 27.815 48.1634 27.4839 47.722C27.1528 47.2806 26.9601 46.7509 26.93 46.1999C26.93 45.9799 26.93 45.75 26.93 45.52C26.93 36.74 26.93 27.9566 26.93 19.17V18.7299C26.5966 19.388 26.1835 20.0027 25.7 20.56C25.51 20.76 25.32 20.97 25.12 21.17L17.93 28.3299C17.5682 28.7506 17.0929 29.0583 16.5609 29.2161C16.0289 29.3739 15.4627 29.3752 14.93 29.2199C14.51 29.0942 14.127 28.8681 13.814 28.5611C13.501 28.2541 13.2675 27.8755 13.1335 27.4581C12.9996 27.0406 12.9694 26.5969 13.0454 26.1651C13.1215 25.7333 13.3016 25.3265 13.57 24.9799C13.7232 24.7816 13.8903 24.5945 14.07 24.42L27.22 11.2599C27.7688 10.6117 28.5009 10.1446 29.32 9.91998L30.1 9.92999Z" fill="#EA0F0F"/>
<path d="M29.7199 57.42C45.195 57.42 57.7399 44.875 57.7399 29.4C57.7399 13.9249 45.195 1.37994 29.7199 1.37994C14.2449 1.37994 1.69995 13.9249 1.69995 29.4C1.69995 44.875 14.2449 57.42 29.7199 57.42Z" stroke="#EA0F0F" stroke-width="1.5" stroke-miterlimit="10"/>
</svg>
