<svg width="59" height="59" viewBox="0 0 59 59" fill="none" xmlns="http://www.w3.org/2000/svg">
<path d="M29.1471 48.7052C28.321 48.4972 27.5829 48.031 27.0402 47.3743C22.671 42.8975 18.2983 38.434 13.9221 33.9838C13.4861 33.5886 13.185 33.0666 13.0615 32.4912C12.938 31.9158 12.9983 31.3162 13.2338 30.7769C13.4133 30.388 13.6802 30.0458 14.0137 29.7771C14.3472 29.5084 14.7383 29.3204 15.1564 29.2277C15.5746 29.1351 16.0085 29.1403 16.4243 29.243C16.8401 29.3456 17.2266 29.543 17.5535 29.8196C17.732 29.9714 17.8904 30.1329 18.0488 30.2945L24.2466 36.6162C25.3354 37.5136 26.2006 38.652 26.7738 39.9413C26.8428 39.781 26.8687 39.6054 26.8488 39.432L27.1117 12.8834C27.0821 12.4596 27.1428 12.0344 27.2898 11.6359C27.4369 11.2374 27.6669 10.8746 27.9646 10.5716C28.3274 10.193 28.7962 9.93299 29.3095 9.82563C29.8228 9.71827 30.3565 9.76861 30.8407 9.97007C31.3594 10.1583 31.8106 10.4963 32.1373 10.941C32.464 11.3857 32.6515 11.9172 32.6761 12.4685C32.6739 12.6885 32.6716 12.9184 32.6693 13.1484C32.5824 21.9279 32.4954 30.7108 32.4084 39.497L32.4041 39.9371C32.744 39.2823 33.1632 38.6717 33.6521 38.1193C33.8441 37.9212 34.0362 37.7131 34.2382 37.5151L41.4987 30.4267C41.8647 30.0096 42.343 29.7066 42.8765 29.5541C43.41 29.4015 43.9762 29.4058 44.5074 29.5664C44.9261 29.6963 45.3069 29.9262 45.6168 30.2362C45.9268 30.5463 46.1565 30.9272 46.2863 31.346C46.4161 31.7647 46.4419 32.2087 46.3616 32.6397C46.2813 33.0707 46.0972 33.4758 45.8253 33.8197C45.6702 34.0165 45.5013 34.2019 45.3198 34.3746L32.0401 47.4038C31.485 48.0466 30.7483 48.5065 29.927 48.7229L29.1471 48.7052Z" fill="#26CF17"/>
<path d="M29.9974 1.22131C14.5231 1.06811 1.85456 13.4883 1.70135 28.9626C1.54815 44.4368 13.9683 57.1054 29.4426 57.2586C44.9168 57.4118 57.5854 44.9916 57.7386 29.5174C57.8918 14.0431 45.4716 1.37452 29.9974 1.22131Z" stroke="#1EC510" stroke-width="1.5" stroke-miterlimit="10"/>
</svg>
