<svg width="19" height="20" viewBox="0 0 19 20" fill="none" xmlns="http://www.w3.org/2000/svg">
<path d="M14 11.84V9.14999C14 8.73999 14.1 8.62998 14.5 8.63998C14.67 8.63998 14.73 8.63998 14.7 8.41998C14.5712 7.18821 13.9969 6.04593 13.085 5.20789C12.1732 4.36984 10.9865 3.89377 9.7483 3.8692C8.51006 3.84463 7.30551 4.27325 6.36111 5.07446C5.41671 5.87568 4.79752 6.99431 4.61999 8.22V8.38998C4.61999 8.53998 4.61999 8.64999 4.80999 8.64999C4.99999 8.64999 5.05 8.79998 5.07 8.94998C5.08026 9.02296 5.08026 9.09701 5.07 9.16998V14.54C5.07 14.97 4.96999 15.07 4.55999 15.07H2.13C1.88641 15.0879 1.64181 15.0531 1.41288 14.968C1.18395 14.8828 0.976048 14.7494 0.803338 14.5767C0.630628 14.404 0.49716 14.196 0.412026 13.9671C0.326892 13.7382 0.292093 13.4936 0.309991 13.25V10.41C0.299196 10.1823 0.3346 9.95469 0.414055 9.741C0.493511 9.5273 0.615378 9.3319 0.772332 9.16653C0.929286 9.00117 1.11808 8.86927 1.32734 8.77878C1.5366 8.68829 1.76201 8.64108 1.99 8.63998C2.13 8.63998 2.16999 8.63998 2.17999 8.44998C2.17999 6.46086 2.97016 4.55322 4.37669 3.1467C5.78321 1.74018 7.69086 0.949982 9.67999 0.949982C11.6691 0.949982 13.5768 1.74018 14.9833 3.1467C16.3898 4.55322 17.18 6.46086 17.18 8.44998C17.18 8.56998 17.18 8.63 17.36 8.66C17.7654 8.71815 18.136 8.92156 18.4027 9.23242C18.6694 9.54328 18.8141 9.94043 18.81 10.35C18.81 11.35 18.81 12.35 18.81 13.35C18.8113 13.5733 18.7686 13.7946 18.6844 14.0013C18.6002 14.2081 18.4761 14.3962 18.3192 14.555C18.1622 14.7138 17.9756 14.8401 17.7698 14.9268C17.564 15.0134 17.3432 15.0587 17.12 15.06H16.34C16.2952 15.0531 16.2495 15.0624 16.211 15.0862C16.1725 15.11 16.1438 15.1469 16.13 15.19C15.8365 15.8496 15.4082 16.4403 14.8725 16.9243C14.3369 17.4083 13.7058 17.7747 13.02 18C12.5293 18.1881 12.0197 18.3222 11.5 18.4C11.4368 18.4008 11.3756 18.423 11.3266 18.4629C11.2776 18.5029 11.2435 18.5582 11.23 18.62C11.1481 18.8806 10.9861 19.1088 10.7671 19.2722C10.5481 19.4355 10.2832 19.5258 10.01 19.53C9.71742 19.56 9.42257 19.56 9.13 19.53C8.81054 19.4627 8.52666 19.281 8.33166 19.0192C8.13666 18.7573 8.04397 18.4333 8.07098 18.1079C8.09799 17.7826 8.24285 17.4783 8.47836 17.2522C8.71386 17.0261 9.02381 16.8937 9.35 16.88C9.6094 16.8551 9.87059 16.8551 10.13 16.88C10.3444 16.9044 10.5489 16.9833 10.724 17.1094C10.8991 17.2355 11.0389 17.4044 11.13 17.6C11.13 17.68 11.2 17.75 11.32 17.73C12.7 17.5758 13.9729 16.9126 14.89 15.87C15.0504 15.6743 15.1911 15.4633 15.31 15.24C15.37 15.13 15.37 15.08 15.22 15.08H14.48C14.13 15.08 14.02 14.96 14.02 14.6L14 11.84ZM9.60999 2.19C9.33918 2.18837 9.06856 2.20506 8.8 2.23999C7.30447 2.42889 5.91386 3.10867 4.84615 4.17276C3.77844 5.23685 3.09396 6.62511 2.89999 8.12C2.83999 8.60999 2.83999 8.60999 3.32999 8.62H3.41999C3.83999 8.62 3.83999 8.61999 3.89999 8.20999V8.06C4.11712 6.66126 4.83912 5.39052 5.92953 4.48795C7.01993 3.58537 8.4032 3.11348 9.81788 3.1615C11.2326 3.20952 12.5806 3.7741 13.6073 4.74854C14.634 5.72297 15.2682 7.03974 15.39 8.44998C15.39 8.57998 15.39 8.63 15.56 8.62H16.24C16.35 8.62 16.41 8.61999 16.39 8.45999C16.37 8.29999 16.39 8.11998 16.39 7.94998C16.1269 6.33953 15.2951 4.87679 14.0456 3.82727C12.7961 2.77775 11.2117 2.21106 9.58 2.23001L9.60999 2.19ZM2.80999 11.88C2.80999 11.1 2.80999 10.32 2.80999 9.54001C2.80999 9.39001 2.80999 9.33 2.61999 9.34H1.99999C1.73478 9.34 1.48042 9.44537 1.29289 9.6329C1.10535 9.82044 0.999993 10.0748 0.999993 10.34C0.999993 11.34 0.999993 12.39 0.999993 13.41C0.999993 13.6752 1.10535 13.9296 1.29289 14.1171C1.48042 14.3046 1.73478 14.41 1.99999 14.41C2.17985 14.4 2.36013 14.4 2.53999 14.41C2.72999 14.41 2.79999 14.41 2.78999 14.17C2.76999 13.42 2.77999 12.67 2.77999 11.92L2.80999 11.88ZM16.24 11.88C16.24 12.66 16.24 13.44 16.24 14.22C16.24 14.36 16.24 14.42 16.43 14.41H16.93C17.0827 14.43 17.2379 14.4144 17.3836 14.3645C17.5293 14.3146 17.6615 14.2318 17.7699 14.1224C17.8783 14.013 17.9599 13.8801 18.0085 13.734C18.0571 13.5879 18.0713 13.4325 18.05 13.28V11.02C18.0651 10.7635 18.0651 10.5064 18.05 10.25C18.0183 10.0079 17.899 9.78578 17.7148 9.62552C17.5306 9.46526 17.2942 9.37793 17.05 9.38C16.85 9.38 16.65 9.38 16.45 9.38C16.25 9.38 16.22 9.38001 16.22 9.60001C16.22 10.36 16.21 11.12 16.21 11.84L16.24 11.88ZM3.53999 11.88V13.88C3.53999 14.06 3.45999 14.3 3.53999 14.41C3.61999 14.52 3.89999 14.41 4.07999 14.41C4.25999 14.41 4.30999 14.36 4.30999 14.18C4.30999 12.78 4.30999 11.38 4.30999 9.98001C4.30999 9.79001 4.39999 9.53998 4.30999 9.41998C4.21999 9.29998 3.93999 9.41998 3.74999 9.41998C3.55999 9.41998 3.55999 9.42 3.55999 9.62L3.53999 11.88ZM15.54 11.88V9.92999C15.54 9.73999 15.62 9.48998 15.54 9.38998C15.46 9.28998 15.18 9.38998 14.99 9.38998C14.8 9.38998 14.78 9.39 14.78 9.59C14.78 11.13 14.78 12.68 14.78 14.22C14.78 14.37 14.78 14.43 14.97 14.42C15.1096 14.4052 15.2504 14.4052 15.39 14.42C15.56 14.42 15.59 14.37 15.58 14.21L15.54 11.88ZM9.67999 17.58H9.36999C9.21081 17.5877 9.06072 17.6564 8.95086 17.7719C8.841 17.8873 8.77981 18.0406 8.77999 18.2C8.77694 18.3605 8.83527 18.5161 8.94306 18.635C9.05085 18.754 9.19998 18.8273 9.35999 18.84C9.56666 18.84 9.77667 18.84 9.99 18.84C10.1571 18.84 10.3173 18.7736 10.4355 18.6555C10.5536 18.5373 10.62 18.3771 10.62 18.21C10.62 18.0429 10.5536 17.8827 10.4355 17.7645C10.3173 17.6464 10.1571 17.58 9.99 17.58H9.67999Z" fill="url(#paint0_linear_50_1291)"/>
<defs>
<linearGradient id="paint0_linear_50_1291" x1="42.12" y1="10.55" x2="-130.71" y2="10.55" gradientUnits="userSpaceOnUse">
<stop stop-color="#006093"/>
<stop offset="1" stop-color="#1C3B70"/>
</linearGradient>
</defs>
</svg>
