<svg width="46" height="48" viewBox="0 0 46 48" fill="none" xmlns="http://www.w3.org/2000/svg">
<path d="M24.6352 33.718C24.6331 34.1429 24.5167 34.5575 24.3007 34.9096C24.0848 35.2617 23.7789 35.5355 23.4217 35.6965C23.0645 35.8574 22.672 35.8984 22.2937 35.8141C21.9154 35.7298 21.5683 35.5241 21.2961 35.2228C21.0239 34.9216 20.8388 34.5384 20.7643 34.1216C20.6898 33.7048 20.7291 33.273 20.8773 32.8807C21.0255 32.4885 21.2759 32.1533 21.597 31.9175C21.918 31.6817 22.2954 31.5559 22.6813 31.5559C22.9392 31.5543 23.1948 31.6093 23.4332 31.7175C23.6716 31.8258 23.888 31.9851 24.0699 32.1864C24.2517 32.3876 24.3954 32.6267 24.4924 32.8897C24.5895 33.1526 24.638 33.4342 24.6352 33.718Z" fill="white"/>
<path d="M24.6352 20.71C24.6373 21.1358 24.5245 21.5527 24.3111 21.9079C24.0977 22.2631 23.7933 22.5406 23.4364 22.7051C23.0796 22.8697 22.6864 22.9139 22.3067 22.8323C21.927 22.7506 21.5779 22.5467 21.3036 22.2465C21.0293 21.9462 20.8421 21.563 20.7659 21.1456C20.6896 20.7281 20.7277 20.2951 20.8752 19.9015C21.0228 19.5078 21.2732 19.1713 21.5948 18.9345C21.9163 18.6977 22.2945 18.5712 22.6813 18.5712C23.1977 18.5712 23.6931 18.7962 24.0592 19.1969C24.4253 19.5977 24.6324 20.1417 24.6352 20.71Z" fill="white"/>
<path d="M24.6352 27.2199C24.6352 27.6452 24.5206 28.061 24.3059 28.4146C24.0912 28.7683 23.7861 29.0439 23.4291 29.2067C23.0721 29.3694 22.6792 29.412 22.3002 29.329C21.9212 29.246 21.5731 29.0412 21.2998 28.7405C21.0266 28.4397 20.8405 28.0566 20.7651 27.6394C20.6897 27.2223 20.7284 26.7899 20.8763 26.3969C21.0241 26.004 21.2746 25.6681 21.5959 25.4318C21.9172 25.1955 22.2949 25.0694 22.6814 25.0694C22.9383 25.0678 23.193 25.1224 23.4307 25.2299C23.6684 25.3375 23.8844 25.4958 24.0661 25.6958C24.2478 25.8958 24.3917 26.1335 24.4893 26.3951C24.587 26.6567 24.6366 26.937 24.6352 27.2199Z" fill="white"/>
</svg>
