<svg width="19" height="14" viewBox="0 0 19 14" fill="none" xmlns="http://www.w3.org/2000/svg">
<path d="M0.150024 2.01996C0.19797 1.74742 0.303667 1.48827 0.460022 1.25995C0.611567 1.05589 0.809274 0.890504 1.03696 0.777528C1.26465 0.664552 1.51586 0.60717 1.77002 0.609925H16.52C16.8371 0.590123 17.1528 0.665101 17.4271 0.825379C17.7013 0.985658 17.9217 1.22401 18.06 1.50995C18.1681 1.73796 18.2229 1.9876 18.22 2.23993V11.6799C18.2259 11.8998 18.1861 12.1186 18.1031 12.3223C18.0201 12.5261 17.8957 12.7104 17.7378 12.8636C17.5799 13.0168 17.3919 13.1356 17.1857 13.2125C16.9796 13.2893 16.7597 13.3224 16.54 13.3099H4.38002C3.56002 13.3099 2.73003 13.3099 1.91003 13.3099C1.49664 13.3423 1.0863 13.2171 0.761604 12.9592C0.436908 12.7013 0.221964 12.3299 0.160027 11.9199V2.00995L0.150024 2.01996ZM1.98003 1.66986L2.06002 1.75995L8.06002 7.69989C8.22937 7.87898 8.43827 8.01599 8.67002 8.09992C8.9708 8.20894 9.29736 8.22535 9.60753 8.14691C9.9177 8.06848 10.1972 7.89875 10.41 7.65985L16.3 1.79987C16.3448 1.76116 16.385 1.71755 16.42 1.66986H1.98003ZM1.98003 12.1999H16.35L11.91 7.77985C11.83 7.69985 11.79 7.77985 11.73 7.77985C11.46 8.03985 11.2 8.30989 10.92 8.56989C10.4691 8.96652 9.89633 9.19752 9.29638 9.22479C8.69643 9.25206 8.10511 9.07399 7.62003 8.71991C7.26238 8.44441 6.92793 8.14003 6.62003 7.80988C6.51003 7.69988 6.45002 7.70988 6.35002 7.80988L2.07002 12.0699C2.05127 12.1155 2.02781 12.1591 2.00002 12.1999H1.98003ZM1.22002 2.43988V11.4899L1.31002 11.4L5.68002 7.06989C5.78002 6.96989 5.74002 6.91992 5.68002 6.84992L1.35002 2.53986L1.22002 2.43988ZM17.15 2.43988C17.0936 2.46207 17.0449 2.5003 17.01 2.54987L12.72 6.81989C12.6 6.92989 12.61 6.97991 12.72 7.08991L17 11.3399L17.15 11.4799V2.43988Z" fill="white"/>
</svg>
