<svg width="14" height="19" viewBox="0 0 14 19" fill="none" xmlns="http://www.w3.org/2000/svg">
<path d="M12.4 8.84003C10.78 5.93003 7.03999 3.90003 7.03999 0.280029L6.57001 0.920044C5.51001 2.57004 4.98001 4.98005 6.57001 6.80005C8.39001 8.86005 7.24 11.09 5.17 11.09C3.78 11.09 2.35001 9.71001 2.32001 7.57001C1.48486 8.93872 0.949733 10.4691 0.75 12.06C0.749998 13.7291 1.41237 15.3301 2.59169 16.5113C3.77101 17.6925 5.37086 18.3574 7.03999 18.36C4.14999 17.85 5.55999 14.58 7.03999 13.36C8.51999 14.63 9.93999 17.9 7.03999 18.36C7.86732 18.36 8.68656 18.1971 9.45091 17.8805C10.2153 17.5639 10.9098 17.0998 11.4948 16.5148C12.0798 15.9298 12.5438 15.2353 12.8604 14.4709C13.177 13.7066 13.34 12.8873 13.34 12.06C13.2393 10.9357 12.92 9.84193 12.4 8.84003Z" fill="white"/>
</svg>
