<svg width="80" height="27" viewBox="0 0 80 27" fill="none" xmlns="http://www.w3.org/2000/svg">
<path d="M43.8942 13.3126V7.36584H44.8737V12.4744H47.4022V13.3126H43.8942Z" fill="url(#paint0_linear_222_2)"/>
<path d="M48.2678 7.6263C48.2618 7.55441 48.2708 7.48209 48.2943 7.41385C48.3178 7.3456 48.3554 7.28295 48.4045 7.22988C48.5191 7.13482 48.6655 7.08628 48.8145 7.09396C48.885 7.08884 48.9558 7.09829 49.0224 7.12168C49.0891 7.14507 49.1502 7.18189 49.2018 7.22988C49.2549 7.28064 49.2957 7.34265 49.3213 7.41129C49.347 7.47993 49.3567 7.5534 49.3499 7.6263C49.3552 7.69706 49.3449 7.76815 49.3197 7.83454C49.2945 7.90092 49.255 7.96099 49.204 8.01062C49.153 8.06025 49.0918 8.09824 49.0245 8.12186C48.9572 8.14548 48.8856 8.15417 48.8145 8.14737C48.6655 8.15505 48.5191 8.10651 48.4045 8.01145C48.3114 7.90502 48.2625 7.76728 48.2678 7.6263ZM49.2815 13.2899H48.3248V8.75901H49.2815V13.2899Z" fill="url(#paint1_linear_222_2)"/>
<path d="M51.6848 13.3126L49.9763 8.78172H50.99L51.9012 11.3869C52.0351 11.7312 52.1343 12.0879 52.1974 12.4517C52.2736 12.091 52.3725 11.7354 52.4935 11.3869L53.4047 8.78172H54.4298L52.6985 13.3126H51.6848Z" fill="url(#paint2_linear_222_2)"/>
<path d="M57.1178 13.3919C56.8149 13.4094 56.5116 13.3641 56.2273 13.2588C55.943 13.1535 55.6838 12.9905 55.4662 12.7802C55.2576 12.5536 55.0975 12.287 54.9956 11.9969C54.8938 11.7067 54.8524 11.399 54.874 11.0924C54.8371 10.4677 55.0316 9.85122 55.4207 9.35941C55.6105 9.14982 55.8451 8.98506 56.1072 8.87726C56.3693 8.76947 56.6523 8.72138 56.9355 8.73643C57.1954 8.72107 57.4556 8.76055 57.699 8.8523C57.9424 8.94406 58.1635 9.08598 58.3479 9.26878C58.5305 9.47101 58.6709 9.70738 58.7608 9.96407C58.8508 10.2208 58.8885 10.4926 58.8718 10.764V11.2737H55.8535C55.8467 11.6428 55.9764 12.0016 56.218 12.2818C56.3395 12.4032 56.4856 12.4973 56.6467 12.5579C56.8078 12.6185 56.9801 12.6441 57.1519 12.633C57.4048 12.637 57.6573 12.6104 57.9037 12.5537C58.1599 12.5014 58.4085 12.4177 58.644 12.3044V13.086C58.4207 13.1971 58.1831 13.2772 57.9378 13.3239C57.6672 13.3719 57.3926 13.3946 57.1178 13.3919ZM56.9355 9.45005C56.8 9.44494 56.6649 9.46855 56.5392 9.51932C56.4135 9.5701 56.3001 9.64682 56.2066 9.7445C56.0055 9.9794 55.8892 10.2745 55.8763 10.5828H57.9492C57.966 10.2793 57.8685 9.98043 57.6759 9.7445C57.583 9.64281 57.4681 9.5635 57.3398 9.51248C57.2115 9.46146 57.0733 9.44012 56.9355 9.45005Z" fill="url(#paint3_linear_222_2)"/>
<path d="M64.7831 8.11345C64.5301 8.10099 64.2777 8.14775 64.0463 8.25006C63.8148 8.35237 63.6107 8.50732 63.4505 8.70241C63.1418 9.1973 62.9782 9.76814 62.9782 10.3505C62.9782 10.9329 63.1418 11.5038 63.4505 11.9986C63.6148 12.1905 63.8218 12.3416 64.0551 12.4399C64.2885 12.5383 64.5417 12.5811 64.7945 12.565C65.0395 12.5623 65.2837 12.5357 65.5235 12.4857C65.7739 12.4361 66.0211 12.3718 66.2638 12.2931V13.12C65.7539 13.3085 65.2131 13.4006 64.6692 13.3919C64.2956 13.4119 63.922 13.3514 63.574 13.2146C63.2261 13.0777 62.912 12.8677 62.6532 12.5989C62.1503 11.954 61.9031 11.1478 61.9584 10.3335C61.9464 9.77473 62.0633 9.22063 62.3002 8.71375C62.5128 8.26975 62.8538 7.899 63.2797 7.649C63.7423 7.39296 64.2652 7.26393 64.7945 7.27518C65.3825 7.27221 65.9632 7.40402 66.4916 7.66034L66.1385 8.47586C65.9337 8.37437 65.7202 8.29102 65.5007 8.22669C65.2698 8.14834 65.0271 8.11006 64.7831 8.11345Z" fill="url(#paint4_linear_222_2)"/>
<path d="M71.412 13.3126H70.478V10.5488C70.5053 10.2706 70.4282 9.99225 70.2616 9.76719C70.1787 9.67661 70.0761 9.60604 69.9616 9.56089C69.8472 9.51574 69.7238 9.49722 69.601 9.50669C69.4346 9.49231 69.2671 9.51768 69.1126 9.58073C68.958 9.64379 68.8209 9.7427 68.7126 9.86917C68.4885 10.232 68.3886 10.6572 68.4279 11.0812V13.3466H67.4597V7.01471H68.4279V8.62314C68.4247 8.89962 68.4057 9.17575 68.3709 9.45007H68.4392C68.5682 9.23125 68.7581 9.05421 68.986 8.94033C69.2386 8.82207 69.5155 8.76387 69.7946 8.7704C70.0182 8.74008 70.2458 8.7618 70.4595 8.8338C70.6731 8.9058 70.8671 9.02614 71.0261 9.18535C71.1851 9.34456 71.3047 9.53829 71.3756 9.75129C71.4466 9.9643 71.4668 10.1907 71.4348 10.4128L71.412 13.3126Z" fill="url(#paint5_linear_222_2)"/>
<path d="M75.5806 13.3126L75.387 12.6782C75.2183 12.9193 74.991 13.1141 74.7264 13.2446C74.4579 13.3481 74.1715 13.3982 73.8835 13.3919C73.6952 13.4034 73.5064 13.3772 73.3284 13.315C73.1504 13.2527 72.9867 13.1556 72.847 13.0294C72.7176 12.8964 72.6174 12.7381 72.5527 12.5646C72.488 12.3911 72.4603 12.206 72.4712 12.0213C72.4592 11.8168 72.5 11.6127 72.5897 11.4283C72.6794 11.2439 72.8151 11.0854 72.9838 10.9678C73.466 10.6975 74.0137 10.5643 74.5669 10.5828H75.3528V10.3449C75.3698 10.1115 75.2964 9.88056 75.1478 9.6992C75.0646 9.62136 74.9658 9.56194 74.8578 9.52485C74.7498 9.48775 74.6351 9.47382 74.5214 9.48399C74.2935 9.48435 74.067 9.51875 73.8494 9.58596C73.6436 9.65346 73.4421 9.73284 73.2457 9.82379L72.9268 9.14419C73.4306 8.88739 73.9894 8.75525 74.5555 8.75903C75.0229 8.72475 75.4874 8.8573 75.8654 9.13285C76.0142 9.28031 76.1297 9.45759 76.2044 9.65288C76.279 9.84818 76.311 10.057 76.2982 10.2656V13.3012L75.5806 13.3126ZM74.1455 12.6556C74.3086 12.6675 74.4724 12.6443 74.6257 12.5876C74.779 12.5309 74.9182 12.4421 75.0339 12.3271C75.1425 12.224 75.2272 12.0987 75.2822 11.9599C75.3373 11.821 75.3614 11.6719 75.3528 11.5229V11.1944H74.7719C74.4277 11.1855 74.0868 11.2634 73.781 11.4209C73.6791 11.4886 73.5969 11.5819 73.5429 11.6913C73.4889 11.8007 73.465 11.9223 73.4735 12.0439C73.4714 12.1295 73.4864 12.2146 73.5177 12.2943C73.549 12.3741 73.5959 12.4468 73.6558 12.5083C73.7987 12.6088 73.9705 12.6605 74.1455 12.6556Z" fill="url(#paint6_linear_222_2)"/>
<path d="M79.2939 12.6216C79.5334 12.6163 79.771 12.5782 80 12.5083V13.2219C79.8671 13.2749 79.73 13.3167 79.59 13.3466C79.4156 13.3583 79.2405 13.3583 79.0661 13.3466C78.1549 13.3466 77.6993 12.8708 77.6993 11.908V9.49534H77.0842V9.0649L77.7449 8.71376L78.0638 7.76225H78.6674V8.77038H79.9545V9.49534H78.6674V11.8967C78.6602 11.9887 78.6717 12.0812 78.701 12.1687C78.7304 12.2563 78.777 12.3371 78.8383 12.4064C78.8946 12.4723 78.9643 12.5255 79.0429 12.5626C79.1214 12.5997 79.2069 12.6198 79.2939 12.6216Z" fill="url(#paint7_linear_222_2)"/>
<path d="M14.6752 1.00088H22.0118C23.2568 0.980815 24.4795 1.30393 25.5209 1.92818C26.5623 2.55244 27.3741 3.44897 27.8508 4.50102C28.1766 5.22002 28.3413 5.9915 28.3348 6.7698V15.6791C28.3583 17.0238 27.8586 18.3324 26.9249 19.3713C25.9911 20.4102 24.6841 21.112 23.2371 21.3513C22.8032 21.4247 22.3622 21.4572 21.921 21.4481H15.3257C15.1425 21.4431 14.9624 21.4915 14.8114 21.5865L8.03453 25.7368C7.76665 25.9143 7.44249 26.0066 7.11176 25.9996C6.7988 25.9818 6.5056 25.8536 6.29397 25.6419C6.08234 25.4303 5.9688 25.1519 5.97724 24.8652C5.97724 23.7861 5.97724 22.6932 5.97724 21.6142C5.97724 21.4205 5.97727 21.3374 5.72011 21.2821C4.36329 20.9868 3.15674 20.2781 2.29896 19.2723C1.44118 18.2666 0.983211 17.0237 1.00047 15.7483C1.00047 12.7047 1.00047 9.65195 1.00047 6.58994C1.01652 5.23288 1.56668 3.92659 2.55014 2.91029C3.5336 1.89399 4.88452 1.23573 6.35541 1.05619C6.70268 1.02869 7.05191 1.02869 7.39918 1.05619L14.6752 1.00088Z" fill="url(#paint8_linear_222_2)" stroke="white" stroke-miterlimit="10"/>
<path d="M6.3252 8.92792H23.1161" stroke="white" stroke-miterlimit="10" stroke-linecap="round"/>
<path d="M8.71533 13.4656H20.6505" stroke="white" stroke-miterlimit="10" stroke-linecap="round"/>
<path d="M42.2655 8.26066C42.6933 8.26066 43.04 7.91581 43.04 7.49042C43.04 7.06503 42.6933 6.72018 42.2655 6.72018C41.8378 6.72018 41.491 7.06503 41.491 7.49042C41.491 7.91581 41.8378 8.26066 42.2655 8.26066Z" fill="url(#paint9_linear_222_2)"/>
<defs>
<linearGradient id="paint0_linear_222_2" x1="43.8942" y1="10.3336" x2="47.4022" y2="10.3336" gradientUnits="userSpaceOnUse">
<stop stop-color="#006093"/>
<stop offset="1" stop-color="#1C3B70"/>
</linearGradient>
<linearGradient id="paint1_linear_222_2" x1="48.2678" y1="10.1976" x2="49.3499" y2="10.1976" gradientUnits="userSpaceOnUse">
<stop stop-color="#006093"/>
<stop offset="1" stop-color="#1C3B70"/>
</linearGradient>
<linearGradient id="paint2_linear_222_2" x1="49.9763" y1="11.0585" x2="54.4525" y2="11.0585" gradientUnits="userSpaceOnUse">
<stop stop-color="#006093"/>
<stop offset="1" stop-color="#1C3B70"/>
</linearGradient>
<linearGradient id="paint3_linear_222_2" x1="54.874" y1="11.0585" x2="58.8718" y2="11.0585" gradientUnits="userSpaceOnUse">
<stop stop-color="#006093"/>
<stop offset="1" stop-color="#1C3B70"/>
</linearGradient>
<linearGradient id="paint4_linear_222_2" x1="61.9471" y1="10.3335" x2="66.4802" y2="10.3335" gradientUnits="userSpaceOnUse">
<stop stop-color="#006093"/>
<stop offset="1" stop-color="#1C3B70"/>
</linearGradient>
<linearGradient id="paint5_linear_222_2" x1="67.4369" y1="10.141" x2="71.412" y2="10.141" gradientUnits="userSpaceOnUse">
<stop stop-color="#006093"/>
<stop offset="1" stop-color="#1C3B70"/>
</linearGradient>
<linearGradient id="paint6_linear_222_2" x1="72.437" y1="11.0585" x2="76.264" y2="11.0585" gradientUnits="userSpaceOnUse">
<stop stop-color="#006093"/>
<stop offset="1" stop-color="#1C3B70"/>
</linearGradient>
<linearGradient id="paint7_linear_222_2" x1="77.0842" y1="10.6054" x2="80" y2="10.6054" gradientUnits="userSpaceOnUse">
<stop stop-color="#006093"/>
<stop offset="1" stop-color="#1C3B70"/>
</linearGradient>
<linearGradient id="paint8_linear_222_2" x1="0.970217" y1="13.4657" x2="28.3348" y2="13.4657" gradientUnits="userSpaceOnUse">
<stop stop-color="#006093"/>
<stop offset="1" stop-color="#1C3B70"/>
</linearGradient>
<linearGradient id="paint9_linear_222_2" x1="41.4796" y1="7.49042" x2="43.04" y2="7.49042" gradientUnits="userSpaceOnUse">
<stop stop-color="#006093"/>
<stop offset="1" stop-color="#1C3B70"/>
</linearGradient>
</defs>
</svg>
