<svg width="20" height="20" viewBox="0 0 20 20" fill="none" xmlns="http://www.w3.org/2000/svg">
<path d="M9.99998 0.929903H14.85C15.6739 0.917575 16.4824 1.15324 17.1707 1.60617C17.859 2.0591 18.3953 2.70842 18.71 3.46994C18.9174 3.98821 19.0227 4.54171 19.02 5.09995C19.02 7.24995 19.02 9.3999 19.02 11.5499C19.0335 12.5214 18.7024 13.4662 18.0855 14.2168C17.4686 14.9673 16.6057 15.4752 15.65 15.65C15.3656 15.6952 15.0778 15.7152 14.79 15.7099H10.42C10.2991 15.7076 10.1804 15.7425 10.08 15.8099C8.58665 16.8099 7.09332 17.8099 5.59998 18.8099C5.42815 18.9493 5.21099 19.0206 4.98998 19.01C4.78312 18.9923 4.59067 18.8967 4.45147 18.7426C4.31227 18.5886 4.2367 18.3875 4.23998 18.1799V15.8399C4.23998 15.7099 4.23999 15.64 4.06999 15.61C3.17478 15.3933 2.37922 14.88 1.81274 14.1538C1.24626 13.4275 0.942184 12.531 0.949975 11.61C0.949975 9.39996 0.949975 7.18996 0.949975 4.98996C0.962998 4.00812 1.32881 3.06372 1.9806 2.32932C2.63239 1.59491 3.52664 1.11952 4.49998 0.989962C4.72973 0.974744 4.96023 0.974744 5.18998 0.989962L9.99998 0.929903Z" stroke="white" stroke-miterlimit="10"/>
<path d="M4.47998 6.67993H15.58" stroke="white" stroke-miterlimit="10" stroke-linecap="round"/>
<path d="M6.07007 9.96997H13.9601" stroke="white" stroke-miterlimit="10" stroke-linecap="round"/>
</svg>
