<svg id="Layer_1" data-name="Layer 1" xmlns="http://www.w3.org/2000/svg" viewBox="0 0 288 288"><defs><style>.cls-1,.cls-2,.cls-3{fill:#fff;}.cls-2{font-size:23.64px;}.cls-2,.cls-3{font-family:Poppins-SemiBold, Poppins;font-weight:700;}.cls-3{font-size:7.72px;}</style></defs><title>logo</title><path id="_Compound_Path_" data-name="&lt;Compound Path&gt;" class="cls-1" d="M152.31,133c14.66,0,27.86,3.07,37.1,8a48.46,48.46,0,1,0-81.51,5C116.49,138.21,133.16,133,152.31,133Zm9.61-23.15,11.41,7.32v16a91.39,91.39,0,0,0-11.41-1.79ZM145,93.08l11.41,7.59V131c-1.34,0-2.7-.08-4.07-.08q-3.74,0-7.34.26Zm-17-17,11.41,6v49.57A85.39,85.39,0,0,0,128,133.92Z"/><path id="_Path_" data-name="&lt;Path&gt;" class="cls-1" d="M106.91,161.29a13,13,0,0,0,1.2,5.37c-2.1-6.77,2.65-10.61,7.21-12.67a48.48,48.48,0,0,0,72.73-10.75c4.29.82,7.47,1.65,7.47,1.65-9.27-5.18-22.86-8.44-38-8.44C129.57,136.45,106.91,147.57,106.91,161.29Z"/><text class="cls-2" transform="translate(82.49 190.2)">Axxo Bank</text><text class="cls-3" transform="translate(125.66 199.86)">YOUR PERSONAL BANK</text><rect class="cls-1" x="102.5" y="175.13" width="1.59" height="40.64" transform="translate(-92.16 298.75) rotate(-90)"/><rect class="cls-1" x="102.5" y="178.74" width="1.59" height="40.64" transform="translate(-95.77 302.36) rotate(-90)"/></svg>