<svg width="19" height="19" viewBox="0 0 19 19" fill="none" xmlns="http://www.w3.org/2000/svg">
<path d="M10.47 0.929932C10.87 1.04993 11.29 1.10999 11.69 1.23999C12.9853 1.65087 14.1784 2.33263 15.19 3.23999C16.2789 4.18403 17.1433 5.35923 17.72 6.67993C18.0163 7.37355 18.2343 8.09805 18.37 8.83997V8.95996V9.06995C18.26 9.36995 18.08 9.52 17.84 9.5C17.6 9.48 17.39 9.31998 17.32 8.97998C17.0963 7.72469 16.5939 6.53555 15.85 5.5C14.8869 4.15801 13.562 3.11754 12.03 2.5C11.4823 2.27449 10.9126 2.10691 10.33 2C10 1.94 9.83 1.77992 9.8 1.53992C9.77 1.29992 9.89 1.10996 10.19 0.959961L10.47 0.929932Z" fill="white"/>
<path d="M0.349951 5.83997C0.346612 5.43857 0.428703 5.04106 0.590769 4.67383C0.752836 4.30659 0.991173 3.97802 1.28995 3.70996C1.72995 3.28996 2.11995 2.81992 2.58995 2.41992C2.74755 2.25692 2.93634 2.12735 3.14507 2.03882C3.35381 1.95029 3.57822 1.90466 3.80495 1.90466C4.03169 1.90466 4.2561 1.95029 4.46483 2.03882C4.67357 2.12735 4.86236 2.25692 5.01995 2.41992C5.82995 3.17992 6.62995 3.95992 7.36995 4.78992C7.63777 5.0918 7.78566 5.48145 7.78566 5.88501C7.78566 6.28857 7.63777 6.6781 7.36995 6.97998C6.97227 7.43766 6.54822 7.87165 6.09995 8.27991C6.07816 8.29491 6.05957 8.31419 6.04524 8.33643C6.03092 8.35867 6.02115 8.3835 6.0165 8.40955C6.01185 8.43559 6.01241 8.46234 6.01816 8.48816C6.0239 8.51398 6.0347 8.53832 6.04995 8.55994C6.50839 9.4182 7.08763 10.2063 7.76995 10.9C8.4503 11.6329 9.2196 12.2779 10.06 12.8199C10.28 12.9599 10.51 13.07 10.74 13.2C10.97 13.33 10.86 13.2 10.91 13.2L11.98 12.14C12.292 11.7829 12.7281 11.5577 13.2 11.51C13.4145 11.4893 13.631 11.5132 13.8358 11.5803C14.0406 11.6474 14.2293 11.7563 14.39 11.9C15.25 12.7 16.08 13.52 16.87 14.39C17.138 14.6977 17.2856 15.092 17.2856 15.5C17.2856 15.908 17.138 16.3023 16.87 16.61C16.7 16.82 16.5 17.01 16.31 17.21C16.12 17.41 15.7 17.85 15.38 18.15C15.069 18.4544 14.6938 18.685 14.2819 18.8252C13.8701 18.9654 13.432 19.0115 13 18.96C11.7956 18.8255 10.6281 18.4624 9.55995 17.89C7.63491 16.9391 5.89977 15.6444 4.43995 14.0699C2.8895 12.4667 1.66966 10.5742 0.849951 8.5C0.519159 7.65219 0.349586 6.75003 0.349951 5.83997ZM1.34995 5.97998C1.32882 6.19613 1.32882 6.41385 1.34995 6.63C1.34995 6.72001 1.34995 6.81001 1.34995 6.89001C1.64048 8.12452 2.13747 9.30106 2.81995 10.37C4.52502 13.2252 7.01819 15.5274 9.99995 17C10.9131 17.4894 11.9107 17.8015 12.94 17.9199C13.2491 17.9692 13.5657 17.9422 13.862 17.8411C14.1583 17.74 14.4254 17.5679 14.64 17.34C15.02 16.93 15.42 16.55 15.8 16.15C15.8518 16.1015 15.8987 16.0478 15.94 15.99C16.0077 15.9255 16.0617 15.8479 16.0986 15.762C16.1354 15.676 16.1545 15.5835 16.1545 15.49C16.1545 15.3965 16.1354 15.3038 16.0986 15.2179C16.0617 15.1319 16.0077 15.0544 15.94 14.99C15.62 14.65 15.28 14.32 14.94 13.99L13.83 12.84C13.7663 12.7709 13.689 12.7157 13.6029 12.678C13.5169 12.6403 13.4239 12.6208 13.33 12.6208C13.236 12.6208 13.1431 12.6403 13.057 12.678C12.9709 12.7157 12.8936 12.7709 12.83 12.84L12.65 13.01C12.25 13.41 11.85 13.82 11.44 14.22C11.3196 14.3613 11.1527 14.455 10.9695 14.4844C10.7862 14.5137 10.5984 14.4767 10.44 14.38C10.2 14.25 9.94995 14.13 9.70995 13.99C8.66136 13.347 7.71148 12.5555 6.88995 11.64C6.12442 10.8624 5.49258 9.96356 5.01995 8.97998C4.956 8.88705 4.91118 8.7823 4.88811 8.67188C4.86504 8.56145 4.86419 8.44755 4.8856 8.33679C4.907 8.22603 4.95025 8.12061 5.0128 8.02673C5.07536 7.93285 5.15597 7.85232 5.24995 7.78992C5.67995 7.38992 6.09995 6.97992 6.49995 6.53992C6.56904 6.47624 6.62418 6.39892 6.6619 6.31287C6.69961 6.22681 6.71908 6.13388 6.71908 6.03992C6.71908 5.94596 6.69961 5.85302 6.6619 5.76697C6.62418 5.68091 6.56904 5.6036 6.49995 5.53992L6.37995 5.41992L4.37995 3.41992C4.31003 3.31885 4.21663 3.23626 4.10778 3.1792C3.99892 3.12214 3.87786 3.09241 3.75495 3.09241C3.63205 3.09241 3.51098 3.12214 3.40213 3.1792C3.29327 3.23626 3.19988 3.31885 3.12995 3.41992C2.74995 3.79992 2.37995 4.17993 1.98995 4.54993C1.7909 4.73799 1.63437 4.96655 1.53089 5.22009C1.4274 5.47363 1.37935 5.74638 1.38995 6.02002L1.34995 5.97998Z" fill="white"/>
<path d="M10.23 4.21001C10.5467 4.25114 10.8584 4.32483 11.16 4.42998C12.1098 4.74783 12.9632 5.30192 13.6402 6.04009C14.3171 6.77825 14.7953 7.67637 15.03 8.65007C15.03 8.76007 15.09 8.89006 15.11 9.01006C15.1263 9.07574 15.1294 9.14397 15.1191 9.21086C15.1088 9.27776 15.0853 9.34188 15.0499 9.39958C15.0145 9.45729 14.968 9.50749 14.9131 9.54704C14.8582 9.5866 14.7959 9.6148 14.73 9.63005C14.6663 9.64658 14.6 9.65032 14.5348 9.64116C14.4696 9.632 14.4069 9.61015 14.3502 9.57671C14.2936 9.54326 14.2441 9.49896 14.2045 9.44634C14.165 9.39372 14.1363 9.33382 14.12 9.27007C14.0553 8.97607 13.9752 8.68567 13.88 8.40007C13.5916 7.59053 13.095 6.87126 12.4402 6.31474C11.7854 5.75823 10.9954 5.38406 10.15 5.23003C10.0765 5.22325 10.0053 5.20088 9.94115 5.16448C9.87697 5.12807 9.82128 5.07844 9.77777 5.01885C9.73426 4.95926 9.70393 4.89111 9.68879 4.8189C9.67366 4.74668 9.67406 4.67207 9.68998 4.60002C9.72343 4.484 9.7948 4.38251 9.89269 4.31182C9.99057 4.24112 10.1093 4.20528 10.23 4.21001Z" fill="white"/>
</svg>
