<svg width="20" height="21" viewBox="0 0 20 21" fill="none" xmlns="http://www.w3.org/2000/svg">
<path d="M2.66995 20.15L2.33995 20.07C1.95154 19.9829 1.60354 19.768 1.35157 19.4599C1.0996 19.1517 0.958189 18.768 0.949951 18.37V8.91998C0.96098 8.66485 1.02388 8.41466 1.1348 8.18463C1.24571 7.95461 1.40233 7.74959 1.59509 7.58209C1.78786 7.41459 2.01273 7.28812 2.25598 7.21039C2.49924 7.13266 2.75578 7.10532 3.00996 7.13H7.37995C7.72995 7.13 7.95995 7.28999 7.95995 7.54999C7.95995 7.80999 7.74995 8 7.37995 8H3.05995C2.79477 7.9825 2.5312 8.05276 2.30995 8.19998C2.16206 8.30058 2.05215 8.44783 1.99777 8.61823C1.94339 8.78862 1.94769 8.97232 2.00996 9.13998C2.08882 9.31543 2.21662 9.46441 2.37802 9.56906C2.53943 9.67371 2.72759 9.72961 2.91995 9.73001H15.74C16.02 9.73001 15.98 9.73001 15.99 9.51001C15.99 9.07001 15.99 8.63998 15.99 8.19998C15.99 8.03998 15.99 7.98001 15.75 7.98001H12.58C12.22 7.98001 12.01 7.82999 11.98 7.57999C11.95 7.32999 12.18 7.10999 12.51 7.10999H16.41C16.79 7.10999 16.99 7.26999 16.99 7.60999C16.99 8.24999 16.99 8.90001 16.99 9.54001C16.99 9.68001 16.99 9.72 17.2 9.72H18.39C18.81 9.72 19 9.87999 19 10.24V16.35C19 17.42 19 18.5 19 19.57C19.0113 19.6943 18.9784 19.8187 18.9071 19.9211C18.8357 20.0236 18.7305 20.0975 18.61 20.13L2.66995 20.15ZM1.96996 10.37C1.96596 10.4166 1.96596 10.4634 1.96996 10.51C1.96996 13.14 1.96996 15.76 1.96996 18.38C1.96996 18.93 2.37995 19.28 3.01995 19.28H17.82C17.96 19.28 18 19.28 18 19.11C18 18.3633 18 17.6133 18 16.86C18 16.69 17.94 16.67 17.77 16.67H14.6C14.18 16.67 14 16.51 13.99 16.14V13.74C13.99 13.36 14.17 13.2 14.63 13.2H17.82C17.96 13.2 18 13.2 18 13.04C18 12.3 18 11.56 18 10.82C18 10.56 18 10.59 17.74 10.59H3.33995C2.88203 10.6269 2.42203 10.5514 1.99995 10.37H1.96996ZM16.49 14.08H15.16C15.03 14.08 14.98 14.08 14.98 14.22C14.98 14.71 14.98 15.22 14.98 15.68C14.98 15.78 14.98 15.81 15.13 15.81H17.83C17.97 15.81 17.99 15.81 17.99 15.67C17.99 15.19 17.99 14.71 17.99 14.23C17.99 14.09 17.99 14.07 17.8 14.07L16.49 14.08Z" fill="url(#paint0_linear_178_2)"/>
<path d="M10.43 5.98001V1.47C10.4358 1.40459 10.4275 1.3387 10.4057 1.27676C10.3839 1.21483 10.3491 1.15826 10.3036 1.1109C10.2581 1.06353 10.203 1.02647 10.142 1.00216C10.0811 0.977858 10.0156 0.966889 9.94997 0.969999C9.84379 0.973781 9.74238 1.01501 9.66368 1.08639C9.58498 1.15777 9.53407 1.25468 9.51997 1.35998C9.51499 1.43991 9.51499 1.52008 9.51997 1.6V5.95999C9.44997 5.95999 9.41997 5.95999 9.38997 5.89999L7.99997 4.78C7.92764 4.71408 7.8358 4.67354 7.73835 4.66452C7.64091 4.65549 7.54318 4.67849 7.45997 4.73001C7.37822 4.77492 7.31286 4.84463 7.27331 4.92911C7.23377 5.01358 7.22209 5.10843 7.23997 5.19998C7.26101 5.31872 7.3251 5.42555 7.41997 5.5L9.68998 7.31C9.77409 7.39245 9.88718 7.43863 10.005 7.43863C10.1228 7.43863 10.2359 7.39245 10.32 7.31L12.57 5.51001C12.6179 5.47258 12.658 5.42606 12.688 5.37314C12.7179 5.32022 12.7372 5.26192 12.7446 5.20157C12.752 5.14121 12.7475 5.07997 12.7313 5.02136C12.715 4.96275 12.6874 4.90792 12.65 4.85998C12.6125 4.81205 12.566 4.77196 12.5131 4.742C12.4602 4.71204 12.4019 4.69279 12.3415 4.68536C12.2812 4.67793 12.22 4.68249 12.1614 4.69873C12.1027 4.71496 12.0479 4.74257 12 4.78L10.62 5.88998C10.5691 5.9412 10.5019 5.97306 10.43 5.98001Z" fill="url(#paint1_linear_178_2)"/>
<defs>
<linearGradient id="paint0_linear_178_2" x1="95.09" y1="11.75" x2="-76.8801" y2="15.61" gradientUnits="userSpaceOnUse">
<stop stop-color="#006093"/>
<stop offset="1" stop-color="#1C3B70"/>
</linearGradient>
<linearGradient id="paint1_linear_178_2" x1="94.94" y1="6.10999" x2="-77.0201" y2="2.24999" gradientUnits="userSpaceOnUse">
<stop stop-color="#006093"/>
<stop offset="1" stop-color="#1C3B70"/>
</linearGradient>
</defs>
</svg>
