<svg width="19" height="19" viewBox="0 0 19 19" fill="none" xmlns="http://www.w3.org/2000/svg">
<path d="M2.64005 18.31L2.31005 18.23C1.92163 18.1428 1.57363 17.928 1.32166 17.6198C1.06969 17.3117 0.928282 16.928 0.920044 16.53V7.07996C0.930874 6.82296 0.994331 6.57094 1.10648 6.33945C1.21864 6.10796 1.3771 5.90192 1.57207 5.73413C1.76704 5.56634 1.99437 5.44035 2.23999 5.36395C2.48561 5.28755 2.7443 5.26239 3.00005 5.28998H7.36005C7.72005 5.28998 7.94005 5.44996 7.95005 5.70996C7.96005 5.96996 7.73004 6.15997 7.37004 6.15997H3.00005C2.738 6.14243 2.47758 6.21279 2.26004 6.35995C2.10902 6.45788 1.99596 6.60445 1.93958 6.77539C1.88321 6.94633 1.8869 7.1314 1.95005 7.29996C2.02961 7.47696 2.15895 7.62702 2.32231 7.73178C2.48567 7.83654 2.67598 7.89152 2.87004 7.88998H15.71C15.99 7.88998 15.95 7.88998 15.95 7.66998C15.95 7.22998 15.95 6.79995 15.95 6.35995C15.95 6.19995 15.95 6.13998 15.71 6.13998H12.55C12.19 6.13998 11.97 5.98996 11.95 5.73996C11.93 5.48996 12.15 5.26996 12.48 5.26996H16.38C16.76 5.26996 16.95 5.42996 16.96 5.76996C16.96 6.40996 16.96 7.05998 16.96 7.69998C16.96 7.83998 16.96 7.87997 17.17 7.87997H18.37C18.79 7.87997 18.97 8.03996 18.97 8.39996V14.51C18.97 15.58 18.97 16.66 18.97 17.73C18.9814 17.8543 18.9485 17.9786 18.8772 18.0811C18.8058 18.1835 18.7006 18.2575 18.58 18.29L2.64005 18.31ZM1.94004 8.52997C1.9372 8.57659 1.9372 8.62336 1.94004 8.66998V16.54C1.94374 16.6657 1.97289 16.7893 2.02574 16.9034C2.07859 17.0176 2.15403 17.1198 2.24751 17.2039C2.34098 17.288 2.45055 17.3523 2.56958 17.3929C2.68862 17.4335 2.81465 17.4495 2.94004 17.44H17.74C17.89 17.44 17.93 17.44 17.93 17.27C17.93 16.5233 17.93 15.7733 17.93 15.02C17.93 14.85 17.87 14.83 17.7 14.83H14.56C14.13 14.83 13.95 14.67 13.95 14.3V11.9C13.95 11.52 14.13 11.36 14.58 11.36H17.77C17.92 11.36 17.96 11.36 17.96 11.2C17.96 10.46 17.96 9.71998 17.96 8.97998C17.96 8.71998 17.96 8.74997 17.71 8.74997H3.31005C2.84218 8.79188 2.37126 8.71626 1.94004 8.52997ZM16.46 12.24H15.13C15 12.24 14.94 12.24 14.95 12.38V13.84C14.95 13.94 14.95 13.97 15.1 13.97H17.8C17.93 13.97 17.96 13.97 17.96 13.83C17.96 13.35 17.96 12.87 17.96 12.39C17.96 12.25 17.96 12.23 17.77 12.23L16.46 12.24Z" fill="url(#paint0_linear_104_2)"/>
<path d="M10.44 1.85995V6.73996C10.4474 6.8123 10.439 6.88539 10.4153 6.95413C10.3916 7.02287 10.3531 7.08561 10.3027 7.13797C10.2522 7.19033 10.1909 7.23107 10.1231 7.25732C10.0553 7.28357 9.98259 7.29472 9.91002 7.28998C9.7944 7.28578 9.68418 7.23996 9.59966 7.16095C9.51514 7.08194 9.462 6.97503 9.45002 6.85995C9.44503 6.7767 9.44503 6.69321 9.45002 6.60995V1.87997C9.37002 1.87997 9.34002 1.87997 9.31002 1.93997L7.78002 3.15997C7.70102 3.22508 7.60426 3.2649 7.50233 3.27426C7.40039 3.28362 7.29799 3.26209 7.20846 3.21246C7.11892 3.16284 7.04639 3.08744 7.0003 2.99603C6.95421 2.90463 6.93669 2.80148 6.95002 2.69998C6.97377 2.5691 7.04499 2.45158 7.15002 2.36996L9.61002 0.369965C9.70134 0.281973 9.82321 0.232819 9.95002 0.232819C10.0768 0.232819 10.1987 0.281973 10.29 0.369965L12.74 2.36996C12.7951 2.40959 12.8417 2.45979 12.8771 2.51764C12.9125 2.57549 12.936 2.63983 12.9462 2.70688C12.9565 2.77392 12.9532 2.84233 12.9367 2.90811C12.9202 2.97389 12.8907 3.03571 12.85 3.08997C12.8084 3.14528 12.7556 3.19116 12.695 3.22458C12.6344 3.258 12.5675 3.27821 12.4985 3.28387C12.4295 3.28954 12.3601 3.28056 12.2949 3.25748C12.2297 3.2344 12.1701 3.19774 12.12 3.14996L10.62 1.94998C10.62 1.94998 10.53 1.86995 10.44 1.85995Z" fill="url(#paint1_linear_104_2)"/>
<defs>
<linearGradient id="paint0_linear_104_2" x1="117.5" y1="11.8" x2="-44.99" y2="11.8" gradientUnits="userSpaceOnUse">
<stop stop-color="#006093"/>
<stop offset="1" stop-color="#1C3B70"/>
</linearGradient>
<linearGradient id="paint1_linear_104_2" x1="117.5" y1="3.77997" x2="-44.99" y2="3.77997" gradientUnits="userSpaceOnUse">
<stop stop-color="#006093"/>
<stop offset="1" stop-color="#1C3B70"/>
</linearGradient>
</defs>
</svg>
