<svg width="18" height="19" viewBox="0 0 18 19" fill="none" xmlns="http://www.w3.org/2000/svg">
<path d="M12.79 0.519989C12.91 0.519989 13.04 0.589984 13.15 0.639984C13.4419 0.759083 13.6889 0.967171 13.8559 1.23465C14.0228 1.50213 14.1012 1.81542 14.08 2.13V8.70999C14.08 8.99999 14.08 8.94998 14.32 8.94998H16.71C16.99 8.94998 17.09 9.05999 17.09 9.32999V10.98C17.09 11.25 16.99 11.36 16.71 11.36H14.25C14.11 11.36 14.08 11.41 14.08 11.54V15.97C14.08 16.15 14.08 16.2 14.3 16.2C14.5844 16.1763 14.8677 16.2564 15.0975 16.4256C15.3274 16.5947 15.4881 16.8414 15.55 17.12C15.5896 17.2903 15.5916 17.4673 15.5556 17.6385C15.5197 17.8096 15.4468 17.9709 15.342 18.1109C15.2372 18.251 15.1031 18.3664 14.949 18.4492C14.7949 18.5319 14.6246 18.58 14.45 18.59H4.44999C4.17453 18.6014 3.90342 18.5184 3.68156 18.3547C3.4597 18.1911 3.30039 17.9566 3.23 17.69C3.21023 17.544 3.21023 17.396 3.23 17.25V11.57C3.23 11.4 3.22999 11.35 3.01999 11.35C2.60999 11.35 2.20999 11.35 1.79999 11.35C1.38999 11.35 1.41999 11.24 1.41999 10.96C1.41999 9.95999 1.41999 8.95999 1.41999 7.95999C1.41999 7.79999 1.41999 7.75999 1.21999 7.76999H0.549995C0.504188 7.77469 0.457905 7.76912 0.414519 7.75369C0.371134 7.73827 0.33173 7.71338 0.299171 7.68082C0.266611 7.64826 0.241713 7.60885 0.226287 7.56546C0.210861 7.52207 0.205294 7.4758 0.209991 7.42999V5.69998C0.209991 5.47998 0.319995 5.36999 0.549995 5.35999H1.21999C1.36999 5.35999 1.41999 5.35998 1.41999 5.16998C1.41999 4.10998 1.41999 3.05 1.41999 2C1.36401 1.67437 1.43713 1.33973 1.62384 1.06714C1.81055 0.794546 2.09614 0.605475 2.41999 0.540009L12.79 0.519989ZM3.66999 1.12C3.80201 1.36852 3.86095 1.64936 3.83999 1.92999V5.13998C3.83999 5.29998 3.83999 5.34 4.03999 5.34H8.63999C8.93999 5.34 8.93999 5.34001 8.95999 5.04001C8.96006 4.98357 8.97605 4.92828 9.00612 4.88052C9.03619 4.83276 9.07912 4.79445 9.12999 4.76999C9.17847 4.73644 9.23603 4.71848 9.29499 4.71848C9.35395 4.71848 9.41151 4.73644 9.45999 4.76999L11.25 6.26001C11.2892 6.28772 11.3212 6.3244 11.3433 6.36703C11.3653 6.40967 11.3769 6.457 11.3769 6.505C11.3769 6.55301 11.3653 6.60031 11.3433 6.64294C11.3212 6.68558 11.2892 6.72229 11.25 6.75L10.96 7L9.50999 8.19998C9.30999 8.35998 9.08999 8.32998 8.99999 8.13998C8.98032 8.05443 8.98032 7.96555 8.99999 7.88C8.99999 7.75 8.99999 7.70999 8.83999 7.70999H3.99999C3.85999 7.70999 3.83999 7.71 3.83999 7.88V17.26C3.82891 17.346 3.83629 17.4333 3.86162 17.5162C3.88696 17.5991 3.92968 17.6757 3.98693 17.7408C4.04418 17.8059 4.11464 17.858 4.19363 17.8937C4.27261 17.9295 4.3583 17.9479 4.44499 17.9479C4.53168 17.9479 4.61737 17.9295 4.69636 17.8937C4.77534 17.858 4.8458 17.8059 4.90305 17.7408C4.9603 17.6757 5.00302 17.5991 5.02836 17.5162C5.05369 17.4333 5.06107 17.346 5.04999 17.26V16.62C5.04999 16.19 5.04999 16.13 5.52999 16.13H13.29C13.44 16.13 13.48 16.13 13.48 15.95V11.54C13.48 11.39 13.48 11.35 13.29 11.35H8.64999C8.36999 11.35 8.36999 11.35 8.35999 11.63C8.36254 11.6896 8.34786 11.7486 8.31771 11.8C8.28756 11.8515 8.24322 11.8931 8.18999 11.92C8.13998 11.9544 8.08069 11.9728 8.01999 11.9728C7.95928 11.9728 7.90001 11.9544 7.84999 11.92L6.06999 10.44C6.02868 10.4138 5.99467 10.3776 5.97109 10.3348C5.94752 10.292 5.93515 10.2439 5.93515 10.195C5.93515 10.1461 5.94752 10.098 5.97109 10.0552C5.99467 10.0123 6.02868 9.97614 6.06999 9.94998L7.83999 8.47C7.89192 8.43105 7.95508 8.41 8.01999 8.41C8.0849 8.41 8.14806 8.43105 8.19999 8.47C8.25936 8.50656 8.30516 8.56151 8.33044 8.6265C8.35571 8.69148 8.35906 8.76292 8.33999 8.82999C8.33999 8.99999 8.38999 9.04001 8.55999 9.04001H13.27C13.43 9.04001 13.47 9.03999 13.47 8.82999V2.13998C13.4823 2.00559 13.4649 1.87014 13.419 1.74323C13.3731 1.61631 13.2998 1.50107 13.2044 1.40564C13.1089 1.31021 12.9937 1.23695 12.8668 1.19104C12.7398 1.14513 12.6044 1.12769 12.47 1.13998H3.68999L3.66999 1.12ZM5.10999 5.94H0.999992C0.889992 5.94 0.809991 5.93999 0.819991 6.10999C0.829991 6.27999 0.819991 6.68 0.819991 6.97C0.819991 7.26 0.819992 7.14999 0.999992 7.14999H9.16999C9.31999 7.14999 9.44999 7.15001 9.51999 7.32001C9.58999 7.49001 9.58999 7.32001 9.63999 7.32001L10.52 6.57999C10.52 6.57999 10.59 6.52001 10.52 6.48001L9.60999 5.72C9.60999 5.72 9.54999 5.72 9.51999 5.72C9.48999 5.72 9.27999 5.91 9.10999 5.91L5.10999 5.94ZM12.22 10.76H16.31C16.45 10.76 16.5 10.76 16.49 10.59C16.48 10.42 16.49 10.04 16.49 9.78C16.49 9.52 16.49 9.54999 16.26 9.54999H8.16999C7.99999 9.54999 7.85999 9.54998 7.78999 9.35999C7.71999 9.16999 7.71999 9.35999 7.67999 9.35999L6.79999 10.1C6.73999 10.15 6.73999 10.18 6.79999 10.23L7.67999 10.97C7.67999 10.97 7.74999 11.03 7.78999 10.97C7.82999 10.91 7.99999 10.77 8.16999 10.77L12.22 10.76ZM5.49999 17.97H14.37C14.5291 17.97 14.6817 17.9068 14.7943 17.7943C14.9068 17.6817 14.97 17.5291 14.97 17.37C14.97 17.2109 14.9068 17.0583 14.7943 16.9457C14.6817 16.8332 14.5291 16.77 14.37 16.77H5.79999C5.66999 16.77 5.64999 16.77 5.64999 16.93C5.69358 17.2838 5.64179 17.6429 5.49999 17.97ZM3.23999 3.45999V1.76999C3.25107 1.68401 3.24369 1.59667 3.21835 1.51376C3.19302 1.43086 3.1503 1.35431 3.09306 1.28922C3.03581 1.22412 2.96535 1.17198 2.88636 1.13626C2.80737 1.10054 2.72168 1.08206 2.63499 1.08206C2.54831 1.08206 2.46261 1.10054 2.38363 1.13626C2.30464 1.17198 2.23417 1.22412 2.17692 1.28922C2.11968 1.35431 2.07696 1.43086 2.05163 1.51376C2.02629 1.59667 2.01891 1.68401 2.02999 1.76999V5.19C2.02999 5.32 2.02999 5.34 2.19999 5.34H3.05999C3.20999 5.34 3.23999 5.28999 3.23999 5.14999C3.22999 4.58999 3.23999 4.01999 3.23999 3.45999ZM1.99999 9.23999C1.99999 9.68999 1.99999 10.14 1.99999 10.59C1.99999 10.73 1.99999 10.76 2.16999 10.76H3.06999C3.17999 10.76 3.20999 10.76 3.20999 10.62V7.88998C3.20999 7.77998 3.20999 7.75 3.06999 7.75H2.14999C2.03999 7.75 1.99999 7.74999 1.99999 7.89999C1.99999 8.33999 1.99999 8.83999 1.99999 9.23999Z" fill="url(#paint0_linear_179_5)"/>
<path d="M9.24 14.37H6.44C6.29 14.37 6.25 14.37 6.25 14.18C6.25 13.76 6.25 13.76 6.67 13.76H12.07C12.23 13.76 12.28 13.76 12.27 13.97C12.27 14.37 12.27 14.37 11.87 14.37H9.24Z" fill="url(#paint1_linear_179_5)"/>
<path d="M9.27995 14.98H12.08C12.24 14.98 12.28 15.03 12.27 15.18C12.27 15.59 12.27 15.59 11.85 15.59H6.47996C6.30996 15.59 6.23996 15.59 6.24996 15.38C6.24996 14.99 6.24996 14.99 6.64996 14.99L9.27995 14.98Z" fill="url(#paint2_linear_179_5)"/>
<path d="M6.54002 2.92999H5.22002C5.10002 2.92999 5.04003 2.92999 5.05003 2.76999C5.05003 2.32999 5.05003 2.32999 5.48003 2.32999H7.90002C8.02002 2.32999 8.06002 2.32999 8.06002 2.48999C8.06002 2.93999 8.06002 2.94 7.62002 2.94L6.54002 2.92999Z" fill="url(#paint3_linear_179_5)"/>
<path d="M6.54005 3.53H7.92004C8.02004 3.53 8.07004 3.53 8.06004 3.66C8.05004 3.77312 8.05004 3.88689 8.06004 4C8.06004 4.11 8.06004 4.13 7.92004 4.13H5.20004C5.07004 4.13 5.05005 4.13 5.05005 3.97C5.05005 3.53 5.05005 3.53 5.48005 3.53H6.54005Z" fill="url(#paint4_linear_179_5)"/>
<path d="M11.37 13.16H10.59C10.5 13.16 10.46 13.16 10.46 13.03C10.46 12.55 10.46 12.55 10.92 12.55H12.11C12.23 12.55 12.27 12.55 12.27 12.71C12.27 13.15 12.27 13.15 11.84 13.15L11.37 13.16Z" fill="url(#paint5_linear_179_5)"/>
<defs>
<linearGradient id="paint0_linear_179_5" x1="64.09" y1="9.55" x2="-98.82" y2="9.55" gradientUnits="userSpaceOnUse">
<stop stop-color="#006093"/>
<stop offset="1" stop-color="#1C3B70"/>
</linearGradient>
<linearGradient id="paint1_linear_179_5" x1="64.09" y1="14.07" x2="-98.8199" y2="14.07" gradientUnits="userSpaceOnUse">
<stop stop-color="#006093"/>
<stop offset="1" stop-color="#1C3B70"/>
</linearGradient>
<linearGradient id="paint2_linear_179_5" x1="64.0899" y1="15.28" x2="-98.82" y2="15.28" gradientUnits="userSpaceOnUse">
<stop stop-color="#006093"/>
<stop offset="1" stop-color="#1C3B70"/>
</linearGradient>
<linearGradient id="paint3_linear_179_5" x1="64.0899" y1="2.62999" x2="-98.8198" y2="2.62999" gradientUnits="userSpaceOnUse">
<stop stop-color="#006093"/>
<stop offset="1" stop-color="#1C3B70"/>
</linearGradient>
<linearGradient id="paint4_linear_179_5" x1="64.0899" y1="3.83" x2="-98.8198" y2="3.83" gradientUnits="userSpaceOnUse">
<stop stop-color="#006093"/>
<stop offset="1" stop-color="#1C3B70"/>
</linearGradient>
<linearGradient id="paint5_linear_179_5" x1="64.0899" y1="12.86" x2="-98.8199" y2="12.86" gradientUnits="userSpaceOnUse">
<stop stop-color="#006093"/>
<stop offset="1" stop-color="#1C3B70"/>
</linearGradient>
</defs>
</svg>
